<?xml version="1.0" encoding="utf-8"?>
<!-- Generator: Adobe Illustrator 24.0.2, SVG Export Plug-In . SVG Version: 6.00 Build 0)  -->
<svg version="1.1" id="Layer_1" xmlns="http://www.w3.org/2000/svg" x="0px"
     y="0px"
     viewBox="0 0 300 95" style="enable-background:new 0 0 300 95;" xml:space="preserve">
<style type="text/css">
	.st0{fill:#808080;}
	.st1{fill:#909090;}
	.st2{fill:#FF0000;}
</style>
    <g>
	<g>
		<path class="st0" d="M101.11,89.17c0,0.78-0.28,1.45-0.83,2c-0.55,0.55-1.22,0.83-2,0.83h-3.44c0.29-0.15,0.49-0.33,0.61-0.55
			v-8.8c-0.12-0.22-0.32-0.41-0.61-0.55h3.44c0.78,0,1.45,0.28,2,0.83c0.55,0.55,0.83,1.22,0.83,2V89.17z M97.33,90.11h0.95
			c0.26,0,0.48-0.09,0.66-0.28c0.18-0.18,0.28-0.41,0.28-0.66v-4.25c0-0.26-0.09-0.48-0.28-0.66c-0.18-0.18-0.41-0.28-0.66-0.28
			h-0.95V90.11z"/>
        <path class="st0" d="M108.15,92h-6.27c0.29-0.15,0.49-0.33,0.61-0.55v-8.8c-0.12-0.22-0.32-0.41-0.61-0.55h6.27v2.49
			c-0.15-0.29-0.33-0.49-0.55-0.6h-3.22v2.12h3.07v1.88h-3.07v2.12h3.22c0.22-0.11,0.41-0.32,0.55-0.6V92z"/>
        <path class="st0" d="M116.19,92c0.29-0.15,0.49-0.33,0.61-0.55v-5.72l-2.6,4.67l-2.59-4.67v5.72c0.12,0.22,0.32,0.41,0.61,0.55
			h-3.1c0.29-0.15,0.49-0.33,0.61-0.55v-8.8c-0.12-0.22-0.32-0.41-0.61-0.55h2.63l2.46,4.43l2.46-4.43h2.63
			c-0.29,0.15-0.49,0.33-0.61,0.55v8.8c0.12,0.22,0.32,0.41,0.61,0.55H116.19z"/>
        <path class="st0" d="M122.85,92c-0.78,0-1.45-0.28-2-0.83c-0.55-0.55-0.83-1.22-0.83-2v-4.25c0-0.78,0.28-1.45,0.83-2
			c0.55-0.55,1.22-0.83,2-0.83h0.24c0.78,0,1.45,0.28,2,0.83c0.55,0.55,0.83,1.22,0.83,2v4.25c0,0.78-0.28,1.45-0.83,2
			c-0.55,0.55-1.22,0.83-2,0.83H122.85z M121.91,89.17c0,0.26,0.09,0.48,0.28,0.66c0.18,0.18,0.41,0.28,0.66,0.28h0.24
			c0.26,0,0.49-0.09,0.67-0.28c0.18-0.18,0.28-0.41,0.28-0.66v-4.25c0-0.26-0.09-0.48-0.28-0.66c-0.18-0.18-0.41-0.28-0.67-0.28
			h-0.24c-0.26,0-0.48,0.09-0.66,0.28c-0.18,0.18-0.28,0.41-0.28,0.66V89.17z"/>
        <path class="st0" d="M129.17,91.45c0.12,0.22,0.32,0.41,0.61,0.55h-3.1c0.29-0.15,0.49-0.33,0.61-0.55v-8.8
			c-0.12-0.22-0.32-0.41-0.61-0.55h2.68l2.41,5.58v-5.02c-0.12-0.22-0.32-0.41-0.6-0.55h3.1c-0.29,0.15-0.49,0.33-0.61,0.55v8.8
			c0.12,0.22,0.32,0.41,0.61,0.55h-2.68l-2.41-5.58V91.45z"/>
        <path class="st0" d="M138.02,82.09c0.78,0,1.45,0.28,2,0.83c0.55,0.55,0.83,1.22,0.83,2v0.47h-1.88v-0.47
			c0-0.26-0.09-0.48-0.28-0.66c-0.18-0.18-0.41-0.28-0.67-0.28h-0.37c-0.23,0-0.42,0.08-0.57,0.24c-0.16,0.16-0.24,0.35-0.24,0.57
			c0,0.36,0.15,0.63,0.46,0.82l2.15,1.27c0.43,0.25,0.77,0.6,1.02,1.03c0.25,0.44,0.37,0.91,0.37,1.4c0,0.75-0.26,1.38-0.79,1.91
			c-0.53,0.53-1.16,0.79-1.9,0.79h-0.37c-0.78,0-1.45-0.28-2-0.83c-0.55-0.55-0.83-1.22-0.83-2V88.7h1.89v0.47
			c0,0.26,0.09,0.48,0.28,0.66c0.18,0.18,0.41,0.28,0.66,0.28h0.37c0.22,0,0.41-0.08,0.57-0.24c0.16-0.16,0.24-0.35,0.24-0.57
			c0-0.36-0.16-0.63-0.47-0.81l-2.15-1.27c-0.43-0.25-0.77-0.6-1.02-1.04c-0.25-0.43-0.37-0.9-0.37-1.4c0-0.74,0.26-1.38,0.79-1.9
			c0.53-0.53,1.16-0.79,1.91-0.79H138.02z"/>
        <path class="st0" d="M151.15,86.1h0.95v1.88h-0.95v3.46c0.12,0.22,0.32,0.41,0.61,0.55h-3.67c-0.78,0-1.45-0.28-2-0.83
			c-0.55-0.55-0.83-1.22-0.83-2v-0.24c0-0.72,0.24-1.35,0.72-1.89c-0.48-0.54-0.72-1.17-0.72-1.89v-0.24c0-0.78,0.28-1.45,0.83-2
			c0.55-0.55,1.22-0.83,2-0.83h2.12v2.47c-0.14-0.28-0.31-0.47-0.51-0.58h-1.61c-0.26,0-0.48,0.09-0.66,0.28
			c-0.18,0.18-0.28,0.41-0.28,0.66v0.24c0,0.26,0.09,0.49,0.28,0.67c0.18,0.18,0.41,0.28,0.66,0.28h1.18v-0.95h1.88V86.1z
			 M149.27,87.99h-1.18c-0.26,0-0.48,0.09-0.66,0.28c-0.18,0.18-0.28,0.41-0.28,0.67v0.24c0,0.26,0.09,0.48,0.28,0.66
			c0.18,0.18,0.41,0.28,0.66,0.28h1.18V87.99z"/>
        <path class="st0" d="M162.37,89.17c0,0.78-0.28,1.45-0.83,2c-0.55,0.55-1.22,0.83-2,0.83h-3.44c0.29-0.15,0.49-0.33,0.61-0.55
			v-8.8c-0.12-0.22-0.32-0.41-0.61-0.55h3.44c0.78,0,1.45,0.28,2,0.83c0.55,0.55,0.83,1.22,0.83,2V89.17z M158.59,90.11h0.95
			c0.26,0,0.48-0.09,0.66-0.28c0.18-0.18,0.28-0.41,0.28-0.66v-4.25c0-0.26-0.09-0.48-0.28-0.66c-0.18-0.18-0.41-0.28-0.66-0.28
			h-0.95V90.11z"/>
        <path class="st0" d="M163.17,92c0.29-0.15,0.49-0.33,0.61-0.55v-8.8c-0.12-0.22-0.32-0.41-0.61-0.55h3.44c0.78,0,1.45,0.28,2,0.83
			c0.55,0.55,0.83,1.22,0.83,2v0.24c0,0.59-0.16,1.12-0.49,1.6c-0.32,0.47-0.75,0.81-1.27,1.02l1.98,3.84
			c0.1,0.13,0.26,0.26,0.49,0.38h-2.9c0.16-0.08,0.28-0.16,0.36-0.24l-1.94-3.77v3.45c0.12,0.22,0.32,0.41,0.61,0.55H163.17z
			 M165.67,86.1h0.95c0.26,0,0.48-0.09,0.66-0.28c0.18-0.18,0.28-0.41,0.28-0.67v-0.24c0-0.26-0.09-0.48-0.28-0.66
			c-0.18-0.18-0.41-0.28-0.66-0.28h-0.95V86.1z"/>
        <path class="st0" d="M177.44,82.09c-0.29,0.15-0.49,0.33-0.61,0.55v8.8c0.12,0.22,0.32,0.41,0.61,0.55h-3.1
			c0.28-0.15,0.48-0.33,0.6-0.55v-2.98h-1.89v2.98c0.12,0.22,0.32,0.41,0.61,0.55h-3.1c0.29-0.15,0.49-0.33,0.61-0.55v-6.52
			c0-0.78,0.28-1.45,0.83-2c0.55-0.55,1.22-0.83,2-0.83H177.44z M174.94,83.98H174c-0.26,0-0.49,0.09-0.67,0.28
			c-0.18,0.18-0.28,0.41-0.28,0.66v1.65h1.89V83.98z"/>
        <path class="st0" d="M180.87,92c-0.78,0-1.45-0.28-2-0.83c-0.55-0.55-0.83-1.22-0.83-2v-4.25c0-0.78,0.28-1.45,0.83-2
			c0.55-0.55,1.22-0.83,2-0.83c0.78,0,1.45,0.28,2,0.83c0.55,0.55,0.83,1.22,0.83,2v0.47h-1.88v-0.47c0-0.26-0.09-0.48-0.28-0.66
			c-0.18-0.18-0.41-0.28-0.67-0.28c-0.26,0-0.48,0.09-0.66,0.28c-0.18,0.18-0.28,0.41-0.28,0.66v4.25c0,0.26,0.09,0.48,0.28,0.66
			c0.18,0.18,0.41,0.28,0.66,0.28h0.95v-2.12h-0.95V86.1h3.44c-0.29,0.15-0.49,0.33-0.61,0.55V92H180.87z"/>
        <path class="st0" d="M187.56,92c-0.78,0-1.45-0.28-2-0.83c-0.55-0.55-0.83-1.22-0.83-2v-4.25c0-0.78,0.28-1.45,0.83-2
			c0.55-0.55,1.22-0.83,2-0.83h0.24c0.78,0,1.45,0.28,2,0.83c0.55,0.55,0.83,1.22,0.83,2v4.25c0,0.78-0.28,1.45-0.83,2
			c-0.55,0.55-1.22,0.83-2,0.83H187.56z M186.62,89.17c0,0.26,0.09,0.48,0.28,0.66c0.18,0.18,0.41,0.28,0.66,0.28h0.24
			c0.26,0,0.49-0.09,0.67-0.28c0.18-0.18,0.28-0.41,0.28-0.66v-4.25c0-0.26-0.09-0.48-0.28-0.66c-0.18-0.18-0.41-0.28-0.67-0.28
			h-0.24c-0.26,0-0.48,0.09-0.66,0.28c-0.18,0.18-0.28,0.41-0.28,0.66V89.17z"/>
        <path class="st0" d="M193.88,91.45c0.12,0.22,0.32,0.41,0.61,0.55h-3.1c0.29-0.15,0.49-0.33,0.61-0.55v-8.8
			c-0.12-0.22-0.32-0.41-0.61-0.55h2.68l2.41,5.58v-5.02c-0.12-0.22-0.32-0.41-0.6-0.55h3.1c-0.29,0.15-0.49,0.33-0.61,0.55v8.8
			c0.12,0.22,0.32,0.41,0.61,0.55h-2.68l-2.42-5.58V91.45z"/>
        <path class="st0" d="M202.73,82.09c0.78,0,1.45,0.28,2,0.83c0.55,0.55,0.83,1.22,0.83,2v0.47h-1.88v-0.47
			c0-0.26-0.09-0.48-0.28-0.66c-0.18-0.18-0.41-0.28-0.67-0.28h-0.37c-0.23,0-0.42,0.08-0.57,0.24c-0.16,0.16-0.24,0.35-0.24,0.57
			c0,0.36,0.15,0.63,0.46,0.82l2.15,1.27c0.43,0.25,0.77,0.6,1.02,1.03c0.25,0.44,0.37,0.91,0.37,1.4c0,0.75-0.26,1.38-0.79,1.91
			c-0.53,0.53-1.16,0.79-1.9,0.79h-0.37c-0.78,0-1.45-0.28-2-0.83c-0.55-0.55-0.83-1.22-0.83-2V88.7h1.89v0.47
			c0,0.26,0.09,0.48,0.28,0.66c0.18,0.18,0.41,0.28,0.66,0.28h0.37c0.22,0,0.41-0.08,0.57-0.24c0.16-0.16,0.24-0.35,0.24-0.57
			c0-0.36-0.16-0.63-0.47-0.81l-2.14-1.27c-0.43-0.25-0.78-0.6-1.02-1.04c-0.25-0.43-0.37-0.9-0.37-1.4c0-0.74,0.26-1.38,0.79-1.9
			c0.53-0.53,1.16-0.79,1.91-0.79H202.73z"/>
	</g>
        <g>
		<g>
			<path class="st0" d="M220.24,85.55c-0.08,0.04-0.13,0.08-0.17,0.11l-0.99,1.97l0.99,1.97c0.03,0.03,0.09,0.07,0.17,0.11h-1.25
				c0.08-0.04,0.15-0.09,0.18-0.13l-0.53-1.07l-0.53,1.07c0.04,0.04,0.1,0.08,0.18,0.13h-1.25c0.08-0.04,0.13-0.08,0.17-0.11
				l0.98-1.97l-0.98-1.97c-0.03-0.03-0.09-0.07-0.17-0.11h1.25c-0.09,0.04-0.15,0.09-0.18,0.13l0.53,1.07l0.53-1.07
				c-0.04-0.04-0.1-0.09-0.18-0.13H220.24z"/>
            <path class="st0" d="M224.12,89.71c-0.33,0-0.61-0.12-0.84-0.35c-0.23-0.23-0.35-0.51-0.35-0.84v-1.79
				c0-0.33,0.12-0.61,0.35-0.84c0.23-0.23,0.51-0.35,0.84-0.35h0.1c0.33,0,0.61,0.12,0.84,0.35s0.35,0.51,0.35,0.84v1.79
				c0,0.33-0.12,0.61-0.35,0.84c-0.23,0.23-0.51,0.35-0.84,0.35H224.12z M223.72,88.52c0,0.11,0.04,0.2,0.12,0.28
				c0.08,0.08,0.17,0.12,0.28,0.12h0.1c0.11,0,0.2-0.04,0.28-0.12c0.08-0.08,0.12-0.17,0.12-0.28v-1.79c0-0.11-0.04-0.2-0.12-0.28
				c-0.08-0.08-0.17-0.12-0.28-0.12h-0.1c-0.11,0-0.2,0.04-0.28,0.12c-0.08,0.08-0.12,0.17-0.12,0.28V88.52z"/>
            <path class="st0" d="M231.3,85.55c-0.08,0.04-0.13,0.08-0.17,0.11l-0.99,1.97l0.99,1.97c0.03,0.03,0.09,0.07,0.17,0.11h-1.25
				c0.09-0.04,0.15-0.09,0.18-0.13l-0.53-1.07l-0.53,1.07c0.04,0.04,0.1,0.08,0.18,0.13h-1.25c0.08-0.04,0.13-0.08,0.17-0.11
				l0.98-1.97l-0.98-1.97c-0.03-0.03-0.09-0.07-0.17-0.11h1.25c-0.09,0.04-0.15,0.09-0.18,0.13l0.53,1.07l0.53-1.07
				c-0.04-0.04-0.1-0.09-0.18-0.13H231.3z"/>
            <path class="st0" d="M235.17,89.71c-0.33,0-0.61-0.12-0.84-0.35c-0.23-0.23-0.35-0.51-0.35-0.84v-1.79
				c0-0.33,0.12-0.61,0.35-0.84s0.51-0.35,0.84-0.35h0.1c0.33,0,0.61,0.12,0.84,0.35s0.35,0.51,0.35,0.84v1.79
				c0,0.33-0.12,0.61-0.35,0.84c-0.23,0.23-0.51,0.35-0.84,0.35H235.17z M234.78,88.52c0,0.11,0.04,0.2,0.12,0.28
				c0.08,0.08,0.17,0.12,0.28,0.12h0.1c0.11,0,0.2-0.04,0.28-0.12c0.08-0.08,0.12-0.17,0.12-0.28v-1.79c0-0.11-0.04-0.2-0.12-0.28
				c-0.08-0.08-0.17-0.12-0.28-0.12h-0.1c-0.11,0-0.2,0.04-0.28,0.12c-0.08,0.08-0.12,0.17-0.12,0.28V88.52z"/>
            <path class="st0" d="M242.35,85.55c-0.08,0.04-0.13,0.08-0.17,0.11l-0.99,1.97l0.99,1.97c0.03,0.03,0.09,0.07,0.17,0.11h-1.25
				c0.09-0.04,0.15-0.09,0.18-0.13l-0.53-1.07l-0.53,1.07c0.04,0.04,0.1,0.08,0.18,0.13h-1.25c0.08-0.04,0.13-0.08,0.17-0.11
				l0.98-1.97l-0.98-1.97c-0.03-0.03-0.09-0.07-0.17-0.11h1.25c-0.08,0.04-0.15,0.09-0.18,0.13l0.53,1.07l0.53-1.07
				c-0.04-0.04-0.1-0.09-0.18-0.13H242.35z"/>
            <path class="st0" d="M246.23,89.71c-0.33,0-0.61-0.12-0.84-0.35c-0.23-0.23-0.35-0.51-0.35-0.84v-1.79
				c0-0.33,0.12-0.61,0.35-0.84s0.51-0.35,0.84-0.35h0.1c0.33,0,0.61,0.12,0.84,0.35s0.35,0.51,0.35,0.84v1.79
				c0,0.33-0.12,0.61-0.35,0.84c-0.23,0.23-0.51,0.35-0.84,0.35H246.23z M245.83,88.52c0,0.11,0.04,0.2,0.12,0.28
				c0.08,0.08,0.17,0.12,0.28,0.12h0.1c0.11,0,0.2-0.04,0.28-0.12c0.08-0.08,0.12-0.17,0.12-0.28v-1.79c0-0.11-0.04-0.2-0.12-0.28
				c-0.08-0.08-0.17-0.12-0.28-0.12h-0.1c-0.11,0-0.2,0.04-0.28,0.12c-0.08,0.08-0.12,0.17-0.12,0.28V88.52z"/>
            <path class="st0" d="M253.4,85.55c-0.08,0.04-0.13,0.08-0.17,0.11l-0.99,1.97l0.99,1.97c0.03,0.03,0.09,0.07,0.17,0.11h-1.25
				c0.09-0.04,0.15-0.09,0.18-0.13l-0.53-1.07l-0.53,1.07c0.04,0.04,0.1,0.08,0.18,0.13h-1.25c0.08-0.04,0.13-0.08,0.17-0.11
				l0.98-1.97l-0.98-1.97c-0.03-0.03-0.09-0.07-0.17-0.11h1.25c-0.08,0.04-0.15,0.09-0.18,0.13l0.53,1.07l0.53-1.07
				c-0.04-0.04-0.1-0.09-0.18-0.13H253.4z"/>
            <path class="st0" d="M257.28,89.71c-0.33,0-0.61-0.12-0.84-0.35c-0.23-0.23-0.35-0.51-0.35-0.84v-1.79
				c0-0.33,0.12-0.61,0.35-0.84c0.23-0.23,0.51-0.35,0.84-0.35h0.1c0.33,0,0.61,0.12,0.84,0.35c0.23,0.23,0.35,0.51,0.35,0.84v1.79
				c0,0.33-0.12,0.61-0.35,0.84c-0.23,0.23-0.51,0.35-0.84,0.35H257.28z M256.89,88.52c0,0.11,0.04,0.2,0.12,0.28
				c0.08,0.08,0.17,0.12,0.28,0.12h0.1c0.11,0,0.2-0.04,0.28-0.12c0.08-0.08,0.12-0.17,0.12-0.28v-1.79c0-0.11-0.04-0.2-0.12-0.28
				c-0.08-0.08-0.17-0.12-0.28-0.12h-0.1c-0.11,0-0.2,0.04-0.28,0.12c-0.08,0.08-0.12,0.17-0.12,0.28V88.52z"/>
            <path class="st0" d="M264.46,85.55c-0.08,0.04-0.13,0.08-0.17,0.11l-0.99,1.97l0.99,1.97c0.03,0.03,0.09,0.07,0.17,0.11h-1.25
				c0.08-0.04,0.15-0.09,0.18-0.13l-0.53-1.07l-0.53,1.07c0.04,0.04,0.1,0.08,0.18,0.13h-1.25c0.08-0.04,0.13-0.08,0.17-0.11
				l0.98-1.97l-0.98-1.97c-0.03-0.03-0.09-0.07-0.17-0.11h1.25c-0.08,0.04-0.15,0.09-0.18,0.13l0.53,1.07l0.53-1.07
				c-0.04-0.04-0.1-0.09-0.18-0.13H264.46z"/>
		</g>
            <g>
			<path class="st1" d="M275.24,88.25c0.03-0.08,0.01-0.26-0.08-0.22l-0.06,0.3L275.24,88.25z"/>
                <path class="st1" d="M274.62,87.68c-0.11,0.15-0.23,0.41-0.16,0.68c0.11-0.29,0.13-0.17,0.25-0.52c0.09-0.04,0.16,0.1,0.14,0.21
				c0.03-0.08,0.14,0.07,0.19-0.12c-0.12-0.23-0.27-0.24-0.43-0.05C274.58,87.82,274.61,87.74,274.62,87.68z"/>
                <path class="st1" d="M265.71,87.21l0.06,0.04C265.75,87.23,265.73,87.22,265.71,87.21z"/>
                <path class="st1" d="M260.19,87.04c0.04-0.01,0.06-0.04,0.06-0.06C260.21,87,260.18,87.02,260.19,87.04z"/>
                <path class="st1"
                      d="M259.24,86.71c0.02,0.01,0.04,0.01,0.06,0.02C259.28,86.7,259.26,86.69,259.24,86.71z"/>
                <path class="st1" d="M265.71,87.21l-0.15-0.1C265.55,87.21,265.64,87.19,265.71,87.21z"/>
                <path class="st1" d="M273.39,88.41c0.03-0.01,0.06-0.04,0.08-0.08c-0.03,0.01-0.05,0.02-0.08,0.03
				C273.4,88.38,273.4,88.4,273.39,88.41z"/>
                <path class="st1" d="M268.14,86.97l0.04,0c0.01-0.03,0.03-0.08,0.04-0.12L268.14,86.97z"/>
                <path class="st1" d="M270.01,86.92c-0.04-0.01-0.06,0.25-0.07,0.36c0.02-0.11,0.06-0.16,0.09-0.18
				C270.03,87.05,270.03,86.99,270.01,86.92z"/>
                <path class="st1" d="M272.97,87.37l0.05-0.04C273.01,87.35,272.99,87.36,272.97,87.37z"/>
                <path class="st1" d="M266.81,86.91c0-0.04-0.01-0.07-0.02-0.09C266.79,86.85,266.8,86.88,266.81,86.91z"/>
                <path class="st1" d="M214.55,88.84c0-0.02,0-0.03,0-0.05C214.54,88.82,214.54,88.84,214.55,88.84z"/>
                <path class="st1" d="M212.39,87.57l0.03-0.01c0-0.05,0.01-0.1,0.01-0.14L212.39,87.57z"/>
                <path class="st1"
                      d="M257.52,86.38C257.52,86.38,257.52,86.38,257.52,86.38C257.57,86.36,257.55,86.36,257.52,86.38z"/>
                <path class="st1"
                      d="M241.68,86.57c0.18,0.23-0.29,0.3-0.02,0.55C241.63,87.02,241.9,86.72,241.68,86.57z"/>
                <path class="st1" d="M273.34,88.38c-0.03,0-0.05,0.01-0.08,0C273.3,88.39,273.33,88.39,273.34,88.38z"/>
                <path class="st1"
                      d="M241.66,87.12C241.66,87.12,241.66,87.12,241.66,87.12l0.03,0.03C241.67,87.14,241.67,87.13,241.66,87.12z"
                />
                <path class="st1"
                      d="M253.54,86.54c0.01,0.05,0.02,0.08,0.04,0.11C253.58,86.62,253.57,86.59,253.54,86.54z"/>
                <path class="st1" d="M256.5,86.9l-0.07-0.03C256.46,86.89,256.48,86.9,256.5,86.9z"/>
                <path class="st1" d="M252,86.9c-0.04-0.02-0.05-0.06-0.11-0.02c0.01,0.01,0.01,0.02,0.02,0.03
				C251.93,86.87,251.96,86.86,252,86.9z"/>
                <path class="st1"
                      d="M250.4,86.9c0.01,0.02,0.02,0.03,0.03,0.05c0.02-0.01,0.03-0.01,0.05-0.01L250.4,86.9z"/>
                <path class="st1"
                      d="M219.42,88.72c-0.04-0.07-0.06-0.15-0.07-0.23C219.37,88.67,219.13,88.74,219.42,88.72z"/>
                <path class="st1" d="M273.39,88.27c-0.01,0.06-0.02,0.1-0.05,0.11c0.02,0,0.04-0.01,0.05-0.01
				C273.4,88.33,273.4,88.29,273.39,88.27z"/>
                <path class="st1" d="M251.94,88.93l-0.25-0.04C251.76,88.92,251.85,88.93,251.94,88.93z"/>
                <path class="st1" d="M230.9,88.68l-0.06,0.03C230.86,88.72,230.88,88.71,230.9,88.68z"/>
                <path class="st1"
                      d="M250.93,88.93c-0.05-0.09-0.09-0.14-0.14-0.18c-0.01,0.02-0.02,0.04-0.03,0.07L250.93,88.93z"/>
                <path class="st1"
                      d="M219.34,88.49C219.34,88.49,219.34,88.49,219.34,88.49C219.34,88.49,219.34,88.49,219.34,88.49z"/>
                <path class="st1" d="M217.67,89.1c0.24,0.01,0.11-0.33,0.17-0.53c0.29-0.1,0.13,0.25,0.23,0.42c0.18-0.09,0.32-0.4,0.45-0.39
				c0.01,0.06,0.04,0.08,0.01,0.15c0.19-0.27,0.57-0.01,0.79-0.35c0.02,0.03,0.02,0.06,0.03,0.08c-0.04-0.17-0.04-0.34-0.03-0.46
				c0.11-0.01,0.2-0.21,0.24,0.01c-0.07-0.01-0.07,0.08-0.1,0.15l0.11-0.1c0.1,0.32-0.16,0.11-0.16,0.35
				c0.22-0.1,0.48-0.37,0.65-0.28c0.04,0.31-0.4,0.1-0.17,0.38l-0.26-0.12c0.2,0.49-0.16-0.03,0.02,0.49
				c0.35,0.09,0.39-0.16,0.73-0.07c0.08-0.17-0.03-0.26,0.05-0.43c0.49-0.31,0.39,0.78,0.75,0.37c0.09-0.21,0.13-0.6,0.39-0.39
				l-0.09,0.35c0.34,0.03,0.19-0.51,0.54-0.27c-0.06,0.14-0.26,0.12-0.21,0.16c0.23,0.28,0.16-0.2,0.34-0.2l0.04,0.31
				c0.36-0.05,0.75-0.27,1.15-0.33c-0.02,0.09-0.09,0.19,0,0.29c0.5-0.16,1.06,0.04,1.55,0.22l0.18-0.27c0.04,0,0.08,0.12,0.03,0.17
				c0.19,0.1,0.01-0.17,0.1-0.28c0.11-0.02,0.14,0.15,0.07,0.24c0.33-0.23,0.94-0.49,1.29-0.2l-0.07,0.08
				c0.27,0.11,0.31-0.55,0.56-0.3L227,88.4c0.59,0.12,1.24-0.13,1.69,0.28c0.09-0.39,0.58,0.17,0.62-0.37
				c0.34,0.27,0.24,0.36,0.71,0.54c0.13,0.02,0.19-0.34,0.34-0.39l0,0.28l0.21-0.3l0.11,0.34l0.15-0.07
				c-0.06-0.02-0.12-0.13-0.12-0.21c0.23-0.13,0.56,0.2,0.56,0.34l0.54-0.24c-0.01,0.11-0.1,0.15-0.17,0.22
				c0.29-0.29,0.05,0.3,0.32,0.03c-0.04-0.06,0.02-0.17,0.03-0.23c0.13,0.17,0.43,0.17,0.66,0.1l-0.04,0.19
				c0.4,0.05,0.85-0.09,1.3-0.09c-0.16-0.09-0.12-0.43,0.01-0.46l0.05,0.3c0.09-0.18-0.14-0.11,0.04-0.34
				c0.17,0.03,0.11,0.34,0.02,0.44l0.2-0.1c0.01,0.09-0.04,0.14-0.05,0.25c0.08-0.19,0.35,0.3,0.48-0.02l0.01,0.09
				c0.45,0,0.66-0.1,1.02-0.12c0.01-0.26,0.15-0.2,0.26-0.41c0.27,0.08,0.57,0.28,0.9,0.26c0.23-0.13,0.07-0.22,0.17-0.37
				c0.02,0.23,0.34,0.21,0.17,0.38c0.39-0.04,0.5-0.05,0.99-0.24c-0.05-0.1-0.11-0.14-0.08-0.22c0.09-0.04,0.2,0.1,0.19,0.21
				l-0.02,0.02c0.55-0.35,1.28,0.68,1.72,0.19l-0.02,0.02l0.46-0.25c0.21,0.04-0.13,0.18,0.03,0.32c0.49-0.39,0.78,0.06,1.19-0.2
				c0.31,0.69,1.12-0.05,1.54,0.39l-0.02-0.16c0.11-0.16,0.13,0.09,0.21,0.13c-0.01-0.13-0.12-0.15-0.05-0.24
				c0.93-0.2,1.92,0.24,2.87,0.39c0.35,0.04,0.2-0.84,0.64-0.45l-0.12,0.3c0.7-0.36,1.44,0.01,2.13-0.3
				c-0.04,0.07-0.04,0.16-0.11,0.16c0.15,0.22,0.54,0.01,0.54-0.17c0.11,0.02,0.02,0.16,0.09,0.25c0.15,0.13,0.37-0.28,0.44-0.06
				c0.01,0.04-0.04,0.07-0.07,0.09c0.1-0.11,0.44,0.03,0.35-0.23c0.26,0.12,0.49-0.11,0.7,0.04c0.13-0.28,0.44,0.14,0.49-0.26
				c-0.02,0.41,0.45,0.33,0.62,0.14c-0.05,0.13,0.14,0.13,0.08,0.3c0.19-0.01,0.36-0.08,0.33-0.3c0.34,0.5,0.69-0.4,0.88,0.24
				c0.55-0.22,1.07-0.37,1.57-0.47c-0.02,0.41-0.55,0.04-0.53,0.47c0.47-0.17,0.75-0.52,1.22-0.43c0.12,0.06-0.07,0.18-0.11,0.25
				c0.47-0.17,0.91,0.04,1.33-0.19c0,0.04-0.05,0.08-0.09,0.11c0.08-0.01,0.19,0.06,0.18-0.13l-0.08,0.05
				c-0.13-0.27,0.33-0.57,0.34-0.71c-0.14,0.54,0.42,0.14,0.19,0.82c0.05-0.04,0.12-0.12,0.11-0.25c0.08,0.04,0.11,0.11,0.02,0.25
				c0.3-0.1,0.19-0.3,0.46-0.3c0,0.09-0.06,0.13-0.08,0.23c0.14-0.18,0.27-0.35,0.5-0.28c-0.01,0.05,0.01,0.13-0.06,0.12
				c0.39-0.03,0.67-0.47,1.09-0.3c-0.13,0.4,0.15,0.13,0.17,0.47l0.23-0.1l-0.09-0.17c0.2,0.01,0.38-0.24,0.55-0.13l-0.15,0.14
				l0.38-0.06l-0.21-0.13c0.2-0.18-0.02-0.43,0.25-0.34c-0.05,0.04,0.2,0,0.31,0.21c0,0,0,0,0,0c0.1-0.11,0.2-0.22,0.35-0.14
				c0.04,0.11-0.03,0.38-0.01,0.45c0.1-0.29,0.47-0.08,0.6-0.38c-0.04,0.07-0.04,0.25-0.03,0.29l0.08-0.23
				c0.09,0.07,0.11,0.11,0.09,0.25c0.28,0.04-0.09-0.43,0.24-0.25c-0.03,0.02-0.01,0.05-0.07,0.09c0.34,0.1,0.65-0.15,0.96-0.03
				c0.09,0.34-0.27,0.08-0.17,0.37c0.44-0.06,0.92-0.41,1.35-0.33L264,88.07c0.06-0.49,0.32,0.24,0.54,0.01
				c-0.05,0.04-0.07,0.27-0.06,0.22c0.29,0.08,0.6-0.12,1.05-0.27l-0.06,0.12c0.17,0.11,0.46,0.06,0.64,0.12
				c0.06-0.12,0.16-0.1,0.1-0.29c0.58,0.71,1.1-0.38,1.61,0.21c-0.06,0-0.15,0.11-0.1,0.11l0.44-0.12
				c-0.03-0.21-0.06-0.13-0.15-0.29c0.06-0.13,0.18-0.22,0.29-0.22c-0.2,0.14,0,0.34,0.09,0.46c-0.01-0.06,0.01-0.14,0.01-0.2
				c0.23,0.38,0.04-0.43,0.35-0.17l-0.02,0.11c0.12-0.06,0.22-0.2,0.35-0.17c0.05,0.24-0.12,0.11-0.13,0.32
				c0.18-0.01,0.35-0.46,0.51-0.22c-0.07,0.07-0.18,0.07-0.26,0.14c0.17,0.29,0.19,0.21,0.32,0.26l-0.01-0.01l0.3,0.13l-0.08-0.08
				c0.22-0.64,0.45-0.12,0.75-0.53c-0.29,0.4-0.05,0.23-0.07,0.51c0.08,0.08,0.19,0.16,0.16,0.24c0.14-0.22,0.23,0.18,0.43-0.15
				c0.01,0.09,0.15,0.01,0.12,0.23c0.18-0.07-0.04-0.16-0.03-0.27c0.28-0.31,0.66,0.37,1.07-0.05c0.35-0.17,0.41-0.47,0.74-0.62
				c0.11,0.14-0.09,0.33-0.09,0.33c0.18,0.13,0.31,0.11,0.48,0c-0.03,0.08,0,0.14,0.05,0.24c0.13-0.02,0.09-0.33,0.27-0.19
				c-0.03,0.1-0.07,0.26-0.13,0.36c0.16-0.08,0.31-0.25,0.48-0.33c0.04,0.16-0.1,0.24-0.16,0.34c0.18-0.07,0.47-0.14,0.53-0.39
				l-0.12-0.09c0.07-0.01,0.03,0.21-0.01,0.26c-0.16,0.19-0.23-0.09-0.24-0.18l0.12-0.06c-0.12-0.52-0.47,0.08-0.7,0.05l0.1-0.38
				l-0.24,0.32c-0.05-0.1-0.09-0.31,0.03-0.37c-0.17-0.19-0.15,0.14-0.29-0.07c-0.02-0.03-0.01-0.05,0.01-0.07l-0.16,0.11
				c0.03-0.08-0.03-0.27,0.07-0.21c-0.29-0.22-0.47,0.29-0.58,0l0.02-0.02c-0.41,0.13-0.04,0.28-0.34,0.61l-0.21-0.69l-0.04,0.28
				c-0.04-0.01-0.13-0.03-0.11-0.14c-0.16,0.19,0.03,0.12-0.06,0.3c-0.2-0.25-0.56,0.12-0.6-0.33c-0.07,0.21,0.19,0.16-0.02,0.31
				c-0.06-0.48-0.25,0.08-0.43-0.14c0.06-0.25,0.23-0.12,0.05-0.34c-0.11,0.42-0.36-0.09-0.52-0.01c-0.01,0.33-0.34,0.14-0.6,0.25
				c0.02-0.11-0.49-0.18-0.74-0.3l0.01-0.06c-0.05,0.34-0.3,0.27-0.48,0.34c0.01-0.2,0.04-0.28,0.14-0.37l-0.17,0
				c-0.04,0.11-0.09,0.16-0.21,0.2l0.04-0.25c-0.23,0.01-0.46,0.3-0.75,0.13c-0.02,0.23,0.23,0.65-0.08,0.81
				c-0.01-0.13-0.02-0.34,0.06-0.4c-0.03,0.02-0.1,0.11-0.15,0.05l0.12-0.21c-0.13-0.09-0.07,0.18-0.18,0.16
				c0-0.18-0.08-0.13-0.06-0.27c0.03-0.02,0.09,0.07,0.13,0c-0.12-0.03-0.27-0.14-0.32-0.28c0.01,0.1,0,0.24-0.09,0.27
				c-0.23,0.01-0.08-0.22-0.21-0.31c-0.06,0.13-0.2,0-0.21,0.27c-0.07,0-0.08-0.13-0.11-0.2c-0.12,0.12-0.55,0.03-0.42,0.32
				l0.03,0.02c-0.01,0.01-0.01,0.01-0.02,0.01c0,0,0,0,0,0h0c-0.39,0.27-0.81-0.15-1.19-0.04l0-0.09c-0.23,0.1-0.51,0.06-0.68,0.26
				c-0.07,0-0.16-0.17-0.13-0.27c-0.18,0.07-0.2,0.17-0.45,0.02c0.18-0.16-0.06-0.14,0.18-0.12c-0.23-0.08-0.28-0.22-0.52,0.02
				c0.08-0.23-0.17-0.29-0.28-0.22l0.16,0.17c-0.12,0.03-0.23,0.01-0.34-0.01l0.06-0.3c-0.47-0.37-0.84,0.63-1.2,0.01
				c-0.12,0.21,0.25,0.15,0.14,0.4c-0.21-0.04-0.44-0.48-0.51-0.48c-0.29-0.17-0.27,0.45-0.58,0.33c0.04,0.11,0.08,0.4-0.15,0.5
				c-0.21-0.04-0.26-0.46-0.13-0.54c0.05-0.01,0.08,0.03,0.07,0.06c0.07-0.04,0.16-0.09,0.08-0.2l-0.03,0.11
				c-0.11-0.11-0.4-0.1-0.33-0.28c-0.16,0.1-0.07,0.18,0.05,0.23c-0.28-0.16-0.43,0-0.71-0.11c0.05,0.06,0.09,0.19,0.04,0.19
				c-0.42-0.13-0.18,0.21-0.47,0.25c-0.16-0.17,0.06-0.4-0.23-0.26c-0.17-0.11-0.04-0.29,0.03-0.38c-0.26,0.21-0.48-0.14-0.63-0.18
				l0.14-0.09c-0.08,0.05-0.15,0.05-0.22,0.05l0.08,0.22c-0.08-0.04-0.15-0.04-0.15-0.13c-0.08,0.14,0.06,0.36-0.1,0.56
				c-0.11-0.11-0.32,0.12-0.36-0.17c0.34,0.1-0.04-0.29,0.25-0.34c-0.05,0.03-0.12,0.03-0.2-0.01c-0.01-0.03,0.01-0.06,0.03-0.08
				c-0.32-0.26-0.15,0.33-0.48,0.32c0.04-0.16-0.08-0.31-0.13-0.27c0.13,0,0.06,0.27-0.06,0.4c-0.21-0.13-0.23,0.09-0.34,0.08
				l0.13,0.06c-0.04,0.16-0.15,0.14-0.3,0.19c-0.01-0.13,0.14-0.09,0.08-0.14c-0.17,0.29-0.37-0.3-0.6-0.1
				c-0.11-0.11-0.01-0.31-0.1-0.38c-0.26,0.21-0.28-0.22-0.55-0.05c0.08,0.22,0.09,0.17-0.1,0.38l0.45-0.15l-0.29,0.32
				c0.13,0,0.28-0.14,0.36-0.1c-0.14,0.18-0.12,0.12-0.06,0.31c-0.18-0.33-0.36,0.19-0.58-0.03l0.01-0.54
				c-0.32-0.24-0.57,0.28-0.98,0.14l0.13,0.09c-0.06,0.21-0.26,0.03-0.39,0.12c0.01-0.18-0.07-0.25-0.13-0.36
				c0.01,0.13-0.3-0.01-0.34,0.35l-0.19-0.24c-0.34-0.1-0.38,0.52-0.71,0.45c0.1-0.2-0.05-0.32,0.17-0.47
				c-0.11,0-0.2-0.03-0.21,0.09c-0.06-0.11-0.3,0.24-0.4,0.07c-0.05,0.08-0.06,0.27-0.18,0.25c-0.01-0.04,0-0.09,0-0.09
				c0,0.09-0.19,0.12-0.08,0.32c-0.33-0.56-0.93,0.04-1.22-0.44c-0.23,0.06-0.52,0.12-0.73,0.13c0.01-0.05,0-0.09,0.04-0.07
				c-0.29-0.17-0.18,0.52-0.52,0.33c-0.17-0.29,0.18-0.16,0.07-0.27c-0.05-0.6-0.4,0.08-0.63-0.27l0.05-0.04
				c-0.17-0.2-0.42,0.23-0.7,0.18c0,0,0.01-0.05,0-0.09c-0.19,0.3-0.56,0.4-0.83,0.49c0.08-0.23,0.12-0.12,0.07-0.36
				c-0.12,0.03,0.04,0.38-0.21,0.45c-0.08-0.13-0.25-0.24-0.28-0.49l0.23-0.01c-0.12-0.33-0.3,0.01-0.42-0.05l0.02-0.14
				c-0.35,0.05-0.36,0.41-0.73,0.38l0.04,0.11c-0.21,0.36-0.17-0.2-0.38,0.06l-0.06-0.36c-0.14,0.09-0.48,0.35-0.72,0.42
				c0.14-0.27,0.42-0.41,0.6-0.56c-0.13,0-0.46,0.03-0.53,0.21c0.05-0.03,0.12-0.12,0.18-0.07c-0.17,0.28-0.38,0.42-0.65,0.42
				c0.05-0.7-0.7-0.18-0.89-0.72c-0.47,0.26-0.94-0.11-1.49-0.07c0.2,0.55-0.16,0.02-0.13,0.58c-0.13,0.04-0.18,0.03-0.19-0.01
				l-0.39-0.33c-0.09-0.16,0.12-0.12,0.11-0.25c-0.28-0.04-0.12-0.24-0.3-0.39c0.04,0.2-0.1,0.29-0.26,0.21l0.23,0.26
				c-0.39,0.3-0.34-0.47-0.74-0.17l0.13-0.18c-0.2,0.1-0.75,0-0.95,0.45c-0.04-0.06-0.08-0.22,0.01-0.26
				c-0.49-0.07-1.08,0.48-1.46,0.2l0.04-0.14c-0.09,0.04-0.16,0.26-0.27,0.12c0.01-0.06,0.04-0.14-0.01-0.14
				c-0.05,0.05-0.24,0.24-0.36,0.16l0.1-0.15c-0.47-0.18-0.73,0.38-1.13,0.47c0-0.4-0.37-0.53-0.56-0.6l0.01-0.06
				c-0.55-0.05-0.94,0.33-1.45,0.49c-0.32-0.44-1.08-0.18-1.59-0.43c0.08,0.07-0.01,0.31-0.1,0.35c-0.12-0.08-0.33,0.28-0.31-0.09
				l0.04,0.01c-0.09-0.36-0.34-0.27-0.53-0.28l-0.03,0.48c-0.5-0.7-1.32,0.26-1.59-0.37c-0.12,0.12-0.27,0.12-0.39,0.24l0.01-0.26
				c-0.34-0.07-0.5-0.1-0.92-0.04l0.08-0.19c-0.23-0.02-0.3,0.75-0.51,0.76l-0.07-0.39c-0.41,0.01-0.82-0.33-1.23,0.02
				c0.01-0.06,0.02-0.17,0.08-0.18c-0.19-0.01-0.74-0.26-0.67,0.27c0-0.35-0.42-0.03-0.64,0.12l0.03-0.26
				c-0.19,0.33-0.19,0.42-0.45,0.51c-0.06-0.03-0.05-0.2,0.03-0.14c-0.21-0.13-0.16,0.24-0.41,0.11l0.09-0.16
				c-0.21-0.02-0.19,0.07-0.31,0.26c-0.13,0.1-0.4-0.06-0.43-0.3c-0.03,0.14-0.14,0.33-0.27,0.26c-0.02-0.09,0.03-0.14,0.05-0.17
				c-0.35-0.17-0.53,0.3-0.77,0.05c-0.01-0.08-0.02-0.13-0.04-0.15c0.28,0.01,0.51,0.02,0.49,0.04c0-0.24-0.23-0.28-0.05-0.6
				c-0.18,0.18-0.49,0.56-0.72,0.45c-0.01-0.02-0.02-0.05-0.03-0.08l0.02-0.03c-0.05-0.02-0.1,0-0.14,0.04
				c-0.07-0.04-0.12-0.07-0.18-0.07c-0.03-0.19-0.26-0.1-0.37-0.11c0.01,0.26-0.14,0.22,0,0.43c-0.02-0.02,0.02-0.03,0.1-0.04
				c0.02-0.01,0.04-0.01,0.05-0.03c0,0.01,0,0.02-0.01,0.02c0.07-0.01,0.17-0.01,0.28-0.02c-0.09,0.13-0.18,0.24-0.31,0.1
				c-0.06,0.17-0.12,0.34-0.16,0.42c-0.15-0.36-0.45-0.55-0.5-0.77c-0.35,0.14-0.81,0.1-1.03,0.58c-0.1,0.06-0.11-0.14-0.15-0.21
				c0.06-0.05,0.12-0.04,0.15-0.11c-0.2,0.12-0.58,0.05-0.63,0.39c-0.25-0.15,0.14-0.31-0.2-0.26l0.05-0.1
				c-0.67-0.54-1.09,0.86-1.83,0.17c0.05,0.04,0.08,0.06,0.09,0.12c-0.85-0.31-1.74,0.29-2.58-0.2c-0.24-0.1-0.26,0.12-0.41,0.28
				l-0.05-0.28l-0.25,0.32c-0.35,0.23-0.61-0.68-1.05-0.24l0.06,0.19c-0.16-0.04-0.51,0.11-0.48-0.1c-0.02,0.03-0.05,0.19-0.11,0.1
				l0-0.14l-0.39,0.25c-0.3-0.1,0.05-0.57-0.4-0.6c-0.16,0.06-0.47,0.42-0.41,0.52c0.07,0.01,0.17,0.09,0.18,0.24l-0.15,0.08
				c-0.03,0.43-0.14,0.86,0.23,1.16l0.26-0.26l0.08,0.21l-0.22,0.01c0.12,0.19,0.2,0.02,0.29-0.1c0.02,0.11,0.06,0.19,0.11,0.23
				l0.25-0.41c0.03,0.17-0.11,0.33,0.06,0.42c0.12-0.19-0.11-0.37,0.08-0.5c0.12,0.19,0.09,0.35,0.23,0.19
				c0.02,0.11-0.01,0.18-0.07,0.23c0.13-0.13,0.34-0.06,0.41-0.28c0.13,0.24,0.44-0.06,0.42,0.34c0.04-0.1,0.23-0.32,0.35-0.33
				c-0.22,0.48,0.44,0.03,0.39,0.55c0.16-0.43,0.58-0.19,0.86-0.43c-0.02,0.03-0.05,0.1-0.07,0.08c0.16,0.04,0.21,0.17,0.31,0.25
				c0.02-0.36,0.27-0.44,0.4-0.66c0.2,0.35-0.12,0.42-0.06,0.75c-0.01-0.29,0.34-0.29,0.27-0.53c0.15,0.21,0.13,0.1,0.21,0.4
				c0.03-0.45,0.14-0.08,0.26-0.35c0.22,0.22,0.06,0.42,0.29,0.28C217.88,88.94,217.67,89.1,217.67,89.1z M223.33,88.32
				C223.33,88.32,223.33,88.33,223.33,88.32c-0.05,0.01-0.09,0.02-0.12,0.02C223.23,88.34,223.27,88.33,223.33,88.32z M223.8,88.32
				c-0.06-0.01-0.13-0.01-0.21-0.01c-0.02-0.09,0-0.18,0.05-0.18C223.62,88.19,223.73,88.24,223.8,88.32z M222.8,86.53
				c0.08-0.04,0.1,0.01,0.11,0.07c-0.04,0-0.08,0.01-0.13,0.03c0,0.01-0.01,0.02-0.01,0.03C222.77,86.61,222.78,86.57,222.8,86.53z"
                />
                <path class="st1" d="M222.66,86.87c-0.01,0.01-0.02,0.02-0.03,0.02c0.02,0.02,0.03,0.04,0.04,0.06c0.01-0.03,0.02-0.05,0.03-0.08
				C222.69,86.87,222.67,86.87,222.66,86.87z"/>
                <path class="st1"
                      d="M265.78,87.25l-0.01-0.01c0.01,0.01,0.02,0.02,0.02,0.04C265.78,87.27,265.78,87.26,265.78,87.25z"/>
                <polygon class="st1" points="230.37,88.81 230.37,88.75 230.33,88.8 			"/>
                <path class="st1" d="M268.4,88.14c0,0.02,0.01,0.05,0.03,0.07C268.43,88.19,268.41,88.16,268.4,88.14z"/>
                <path class="st1" d="M269.53,88.19l0.16,0.09C269.62,88.23,269.57,88.21,269.53,88.19z"/>
                <path class="st1" d="M270.4,88.32c0.01-0.05,0.01-0.08,0.02-0.11c0,0,0,0,0,0L270.4,88.32z"/>
                <path class="st1" d="M256.56,88.62c-0.01,0-0.02,0-0.03,0.01C256.45,88.69,256.51,88.67,256.56,88.62z"/>
                <path class="st1"
                      d="M260.68,88.02c-0.04,0.05-0.09,0.09-0.13,0.12C260.62,88.16,260.68,88.17,260.68,88.02z"/>
                <path class="st1"
                      d="M251.97,88.93C251.97,88.93,251.97,88.93,251.97,88.93c-0.01,0-0.02,0-0.03,0L251.97,88.93z"/>
                <path class="st1" d="M260.36,88.14c0.07,0.05,0.13,0.04,0.19,0C260.49,88.13,260.42,88.1,260.36,88.14z"/>
                <path class="st1" d="M274.17,88.44l0.04,0.01c0-0.02,0-0.03,0.01-0.04L274.17,88.44z"/>
                <path class="st1" d="M274.22,88.41l0.05-0.03C274.24,88.38,274.22,88.38,274.22,88.41z"/>
                <path class="st1" d="M274.36,88.31l-0.1,0.06C274.3,88.38,274.34,88.39,274.36,88.31z"/>
                <path class="st1" d="M273.02,88.32L273,88.41C273.01,88.39,273.02,88.36,273.02,88.32z"/>
                <path class="st1"
                      d="M272.67,88.35c0.08,0.02,0.21,0.2,0.33,0.14l0.01-0.07C272.95,88.55,272.75,88.19,272.67,88.35z"/>
                <path class="st1"
                      d="M271.21,87.19l0.29,0.07c-0.05-0.1-0.12-0.23,0.01-0.26C271.14,86.71,271.59,87.23,271.21,87.19z"/>
                <path class="st1" d="M270.3,87.05c0.16-0.05,0-0.14,0.01-0.2C270.2,86.94,270.18,86.96,270.3,87.05z"/>
                <path class="st1" d="M263.72,87.05l0.02-0.23C263.62,86.85,263.74,86.9,263.72,87.05z"/>
                <polygon class="st1" points="262.47,88.26 262.59,88.4 262.64,88.19 			"/>
                <polygon class="st1" points="261.73,86.59 261.78,86.56 261.58,86.64 			"/>
                <path class="st1" d="M250.69,86.67l0.04,0.29C250.81,86.91,250.82,86.59,250.69,86.67z"/>
                <path class="st1" d="M245.92,86.97c-0.05-0.14-0.19-0.24-0.27-0.1C245.76,86.89,245.87,87,245.92,86.97z"/>
                <polygon class="st1" points="231.63,86.5 231.73,86.4 231.55,86.48 			"/>
		</g>
	</g>
        <g>
		<g>
			<path class="st0" d="M81.45,89.91c0.08-0.04,0.13-0.08,0.17-0.11l0.99-1.97l-0.99-1.97c-0.03-0.03-0.09-0.07-0.17-0.11h1.25
				c-0.09,0.04-0.15,0.09-0.18,0.13l0.53,1.07l0.53-1.07c-0.04-0.04-0.1-0.08-0.18-0.13h1.25c-0.08,0.04-0.13,0.08-0.17,0.11
				l-0.98,1.97l0.98,1.97c0.03,0.03,0.09,0.07,0.17,0.11h-1.25c0.09-0.04,0.15-0.09,0.18-0.13l-0.53-1.07l-0.53,1.07
				c0.04,0.04,0.1,0.09,0.18,0.13H81.45z"/>
            <path class="st0" d="M77.57,85.75c0.33,0,0.61,0.12,0.84,0.35c0.23,0.23,0.35,0.51,0.35,0.84v1.79c0,0.33-0.12,0.61-0.35,0.84
				s-0.51,0.35-0.84,0.35h-0.1c-0.33,0-0.61-0.12-0.84-0.35s-0.35-0.51-0.35-0.84v-1.79c0-0.33,0.12-0.61,0.35-0.84
				c0.23-0.23,0.51-0.35,0.84-0.35H77.57z M77.96,86.94c0-0.11-0.04-0.2-0.12-0.28c-0.08-0.08-0.17-0.12-0.28-0.12h-0.1
				c-0.11,0-0.2,0.04-0.28,0.12c-0.08,0.08-0.12,0.17-0.12,0.28v1.79c0,0.11,0.04,0.2,0.12,0.28c0.08,0.08,0.17,0.12,0.28,0.12h0.1
				c0.11,0,0.2-0.04,0.28-0.12c0.08-0.08,0.12-0.17,0.12-0.28V86.94z"/>
            <path class="st0" d="M70.39,89.91c0.08-0.04,0.13-0.08,0.17-0.11l0.99-1.97l-0.99-1.97c-0.03-0.03-0.09-0.07-0.17-0.11h1.25
				c-0.09,0.04-0.15,0.09-0.18,0.13l0.53,1.07l0.53-1.07c-0.04-0.04-0.1-0.08-0.18-0.13h1.25c-0.08,0.04-0.13,0.08-0.17,0.11
				l-0.98,1.97l0.98,1.97c0.03,0.03,0.09,0.07,0.17,0.11h-1.25c0.09-0.04,0.15-0.09,0.18-0.13l-0.53-1.07l-0.53,1.07
				c0.04,0.04,0.1,0.09,0.18,0.13H70.39z"/>
            <path class="st0" d="M66.51,85.75c0.33,0,0.61,0.12,0.84,0.35c0.23,0.23,0.35,0.51,0.35,0.84v1.79c0,0.33-0.12,0.61-0.35,0.84
				s-0.51,0.35-0.84,0.35h-0.1c-0.33,0-0.61-0.12-0.84-0.35c-0.23-0.23-0.35-0.51-0.35-0.84v-1.79c0-0.33,0.12-0.61,0.35-0.84
				c0.23-0.23,0.51-0.35,0.84-0.35H66.51z M66.91,86.94c0-0.11-0.04-0.2-0.12-0.28c-0.08-0.08-0.17-0.12-0.28-0.12h-0.1
				c-0.11,0-0.2,0.04-0.28,0.12c-0.08,0.08-0.12,0.17-0.12,0.28v1.79c0,0.11,0.04,0.2,0.12,0.28c0.08,0.08,0.17,0.12,0.28,0.12h0.1
				c0.11,0,0.2-0.04,0.28-0.12c0.08-0.08,0.12-0.17,0.12-0.28V86.94z"/>
            <path class="st0" d="M59.34,89.91c0.08-0.04,0.13-0.08,0.17-0.11l0.99-1.97l-0.99-1.97c-0.03-0.03-0.09-0.07-0.17-0.11h1.25
				c-0.09,0.04-0.15,0.09-0.18,0.13l0.53,1.07l0.53-1.07c-0.04-0.04-0.1-0.08-0.18-0.13h1.25c-0.08,0.04-0.13,0.08-0.17,0.11
				l-0.98,1.97l0.98,1.97c0.03,0.03,0.09,0.07,0.17,0.11h-1.25c0.09-0.04,0.15-0.09,0.18-0.13l-0.53-1.07l-0.53,1.07
				c0.04,0.04,0.1,0.09,0.18,0.13H59.34z"/>
            <path class="st0" d="M55.46,85.75c0.33,0,0.61,0.12,0.84,0.35c0.23,0.23,0.35,0.51,0.35,0.84v1.79c0,0.33-0.12,0.61-0.35,0.84
				s-0.51,0.35-0.84,0.35h-0.1c-0.33,0-0.61-0.12-0.84-0.35c-0.23-0.23-0.35-0.51-0.35-0.84v-1.79c0-0.33,0.12-0.61,0.35-0.84
				c0.23-0.23,0.51-0.35,0.84-0.35H55.46z M55.86,86.94c0-0.11-0.04-0.2-0.12-0.28c-0.08-0.08-0.17-0.12-0.28-0.12h-0.1
				c-0.11,0-0.2,0.04-0.28,0.12c-0.08,0.08-0.12,0.17-0.12,0.28v1.79c0,0.11,0.04,0.2,0.12,0.28c0.08,0.08,0.17,0.12,0.28,0.12h0.1
				c0.11,0,0.2-0.04,0.28-0.12c0.08-0.08,0.12-0.17,0.12-0.28V86.94z"/>
            <path class="st0" d="M48.29,89.91c0.08-0.04,0.13-0.08,0.17-0.11l0.99-1.97l-0.99-1.97c-0.03-0.03-0.09-0.07-0.17-0.11h1.25
				c-0.09,0.04-0.15,0.09-0.18,0.13l0.53,1.07l0.53-1.07c-0.04-0.04-0.1-0.08-0.18-0.13h1.25c-0.08,0.04-0.13,0.08-0.17,0.11
				l-0.98,1.97l0.98,1.97c0.03,0.03,0.09,0.07,0.17,0.11h-1.25c0.09-0.04,0.15-0.09,0.18-0.13l-0.53-1.07l-0.53,1.07
				c0.04,0.04,0.1,0.09,0.18,0.13H48.29z"/>
            <path class="st0" d="M44.41,85.75c0.33,0,0.61,0.12,0.84,0.35c0.23,0.23,0.35,0.51,0.35,0.84v1.79c0,0.33-0.12,0.61-0.35,0.84
				c-0.23,0.23-0.51,0.35-0.84,0.35h-0.1c-0.33,0-0.61-0.12-0.84-0.35c-0.23-0.23-0.35-0.51-0.35-0.84v-1.79
				c0-0.33,0.12-0.61,0.35-0.84c0.23-0.23,0.51-0.35,0.84-0.35H44.41z M44.8,86.94c0-0.11-0.04-0.2-0.12-0.28
				c-0.08-0.08-0.17-0.12-0.28-0.12h-0.1c-0.11,0-0.2,0.04-0.28,0.12c-0.08,0.08-0.12,0.17-0.12,0.28v1.79
				c0,0.11,0.04,0.2,0.12,0.28c0.08,0.08,0.17,0.12,0.28,0.12h0.1c0.11,0,0.2-0.04,0.28-0.12c0.08-0.08,0.12-0.17,0.12-0.28V86.94z"
            />
            <path class="st0" d="M37.23,89.91c0.08-0.04,0.13-0.08,0.17-0.11l0.99-1.97l-0.99-1.97c-0.03-0.03-0.09-0.07-0.17-0.11h1.25
				c-0.09,0.04-0.15,0.09-0.18,0.13l0.53,1.07l0.53-1.07c-0.04-0.04-0.1-0.08-0.18-0.13h1.25c-0.08,0.04-0.13,0.08-0.17,0.11
				l-0.98,1.97l0.98,1.97c0.03,0.03,0.09,0.07,0.17,0.11h-1.25c0.09-0.04,0.15-0.09,0.18-0.13l-0.53-1.07l-0.53,1.07
				c0.04,0.04,0.1,0.09,0.18,0.13H37.23z"/>
		</g>
            <g>
			<path class="st1" d="M26.45,87.22c-0.03,0.08-0.01,0.26,0.08,0.22l0.06-0.3L26.45,87.22z"/>
                <path class="st1" d="M27.07,87.78c0.11-0.15,0.23-0.41,0.16-0.68c-0.11,0.29-0.13,0.17-0.25,0.52c-0.09,0.04-0.16-0.1-0.14-0.21
				c-0.03,0.08-0.14-0.07-0.19,0.12c0.12,0.23,0.27,0.24,0.43,0.05C27.11,87.64,27.07,87.72,27.07,87.78z"/>
                <path class="st1" d="M35.98,88.25l-0.06-0.04C35.94,88.23,35.96,88.24,35.98,88.25z"/>
                <path class="st1" d="M41.5,88.42c-0.04,0.01-0.06,0.04-0.06,0.06C41.48,88.46,41.51,88.44,41.5,88.42z"/>
                <path class="st1" d="M42.44,88.75c-0.02-0.01-0.04-0.01-0.06-0.02C42.41,88.76,42.43,88.77,42.44,88.75z"/>
                <path class="st1" d="M35.98,88.25l0.15,0.1C36.14,88.25,36.05,88.27,35.98,88.25z"/>
                <path class="st1" d="M28.29,87.05c-0.03,0.01-0.06,0.04-0.08,0.08c0.03-0.01,0.05-0.02,0.08-0.03
				C28.29,87.08,28.29,87.06,28.29,87.05z"/>
                <path class="st1" d="M33.54,88.5l-0.04,0c-0.01,0.03-0.03,0.08-0.04,0.12L33.54,88.5z"/>
                <path class="st1" d="M31.68,88.54c0.04,0.01,0.06-0.25,0.07-0.36c-0.02,0.11-0.06,0.16-0.09,0.18
				C31.66,88.41,31.66,88.47,31.68,88.54z"/>
                <path class="st1" d="M28.71,88.09l-0.05,0.04C28.67,88.11,28.7,88.1,28.71,88.09z"/>
                <path class="st1" d="M34.88,88.55c0,0.04,0.01,0.07,0.02,0.09C34.9,88.61,34.89,88.58,34.88,88.55z"/>
                <path class="st1" d="M87.14,86.62c0,0.02,0,0.03,0,0.05C87.15,86.64,87.15,86.62,87.14,86.62z"/>
                <path class="st1" d="M89.3,87.89l-0.03,0.01c0,0.05-0.01,0.1-0.01,0.14L89.3,87.89z"/>
                <path class="st1"
                      d="M44.17,89.08C44.17,89.08,44.16,89.08,44.17,89.08C44.12,89.1,44.14,89.1,44.17,89.08z"/>
                <path class="st1" d="M60.01,88.89c-0.18-0.23,0.29-0.3,0.02-0.55C60.06,88.44,59.79,88.74,60.01,88.89z"/>
                <path class="st1" d="M28.34,87.08c0.03,0,0.05-0.01,0.08,0C28.39,87.07,28.36,87.07,28.34,87.08z"/>
                <path class="st1"
                      d="M60.03,88.34C60.03,88.34,60.03,88.34,60.03,88.34L60,88.31C60.02,88.32,60.02,88.33,60.03,88.34z"/>
                <path class="st1" d="M48.15,88.93c-0.01-0.05-0.02-0.08-0.04-0.11C48.11,88.84,48.12,88.87,48.15,88.93z"/>
                <path class="st1" d="M45.18,88.56l0.07,0.03C45.23,88.57,45.2,88.56,45.18,88.56z"/>
                <path class="st1" d="M49.68,88.56c0.04,0.02,0.05,0.06,0.11,0.02c-0.01-0.01-0.01-0.02-0.02-0.03
				C49.75,88.59,49.73,88.6,49.68,88.56z"/>
                <path class="st1"
                      d="M51.28,88.56c-0.01-0.02-0.02-0.03-0.03-0.05c-0.02,0.01-0.03,0.01-0.05,0.01L51.28,88.56z"/>
                <path class="st1" d="M82.27,86.74c0.04,0.07,0.06,0.15,0.07,0.23C82.32,86.79,82.56,86.72,82.27,86.74z"/>
                <path class="st1" d="M28.3,87.19c0.01-0.06,0.02-0.1,0.05-0.11c-0.02,0-0.04,0.01-0.05,0.01C28.29,87.13,28.28,87.17,28.3,87.19z
				"/>
                <path class="st1" d="M49.75,86.53L50,86.57C49.93,86.54,49.84,86.53,49.75,86.53z"/>
                <path class="st1" d="M70.79,86.78l0.06-0.03C70.82,86.74,70.8,86.75,70.79,86.78z"/>
                <path class="st1"
                      d="M50.76,86.53c0.05,0.09,0.09,0.14,0.14,0.18c0.01-0.02,0.02-0.04,0.03-0.07L50.76,86.53z"/>
                <path class="st1"
                      d="M82.35,86.97C82.35,86.97,82.35,86.97,82.35,86.97C82.35,86.97,82.35,86.97,82.35,86.97z"/>
                <path class="st1" d="M84.02,86.36c-0.24-0.01-0.11,0.33-0.17,0.53c-0.29,0.1-0.13-0.25-0.23-0.42c-0.18,0.09-0.32,0.4-0.45,0.39
				c-0.01-0.06-0.04-0.08-0.01-0.15c-0.19,0.27-0.57,0.01-0.79,0.35c-0.02-0.03-0.02-0.06-0.03-0.08c0.04,0.17,0.04,0.34,0.03,0.46
				c-0.11,0.01-0.2,0.21-0.24-0.01c0.07,0.01,0.07-0.08,0.1-0.15l-0.11,0.1c-0.1-0.32,0.16-0.11,0.16-0.35
				c-0.22,0.1-0.48,0.37-0.65,0.28c-0.04-0.31,0.4-0.1,0.17-0.38l0.26,0.12c-0.2-0.49,0.16,0.03-0.02-0.49
				c-0.35-0.09-0.39,0.16-0.73,0.07c-0.08,0.17,0.03,0.26-0.05,0.43c-0.49,0.31-0.39-0.78-0.75-0.37c-0.09,0.21-0.13,0.6-0.39,0.39
				l0.09-0.35c-0.34-0.03-0.19,0.51-0.54,0.27c0.06-0.14,0.26-0.12,0.21-0.16c-0.23-0.28-0.16,0.2-0.34,0.2l-0.04-0.31
				c-0.36,0.05-0.75,0.27-1.15,0.33c0.02-0.09,0.09-0.19,0-0.29c-0.5,0.16-1.06-0.04-1.55-0.22l-0.18,0.27
				c-0.04,0-0.08-0.12-0.03-0.17c-0.19-0.1-0.01,0.17-0.1,0.28c-0.11,0.02-0.14-0.15-0.07-0.24c-0.33,0.23-0.94,0.49-1.29,0.2
				l0.07-0.08c-0.27-0.11-0.31,0.55-0.56,0.3l0.05-0.05c-0.59-0.12-1.24,0.13-1.69-0.28c-0.09,0.39-0.58-0.17-0.62,0.37
				c-0.34-0.27-0.24-0.36-0.71-0.54c-0.13-0.02-0.19,0.34-0.34,0.39l0-0.28l-0.21,0.3l-0.11-0.34l-0.15,0.07
				c0.06,0.02,0.12,0.13,0.12,0.21c-0.23,0.13-0.56-0.2-0.56-0.34l-0.54,0.24c0.01-0.11,0.1-0.15,0.17-0.22
				c-0.29,0.29-0.05-0.3-0.32-0.03c0.04,0.06-0.02,0.17-0.03,0.23c-0.13-0.17-0.43-0.17-0.66-0.1l0.04-0.19
				c-0.4-0.05-0.85,0.09-1.3,0.09c0.16,0.09,0.12,0.43-0.01,0.46l-0.05-0.3c-0.09,0.18,0.14,0.11-0.04,0.34
				c-0.17-0.03-0.11-0.34-0.02-0.44l-0.2,0.1c-0.01-0.09,0.04-0.14,0.05-0.25c-0.08,0.19-0.35-0.3-0.48,0.02l-0.01-0.09
				c-0.45,0-0.66,0.1-1.02,0.12c-0.01,0.26-0.15,0.2-0.26,0.41c-0.27-0.08-0.57-0.28-0.9-0.26c-0.23,0.13-0.07,0.22-0.17,0.37
				c-0.02-0.23-0.34-0.21-0.17-0.38c-0.39,0.04-0.5,0.05-0.99,0.24c0.05,0.1,0.11,0.14,0.08,0.22c-0.09,0.04-0.2-0.1-0.19-0.21
				l0.02-0.02c-0.55,0.35-1.28-0.68-1.72-0.19l0.02-0.02l-0.46,0.25c-0.21-0.04,0.13-0.18-0.03-0.32c-0.49,0.39-0.78-0.06-1.19,0.2
				c-0.31-0.69-1.12,0.05-1.54-0.39l0.02,0.16c-0.11,0.16-0.13-0.09-0.21-0.13c0.01,0.13,0.12,0.15,0.05,0.24
				c-0.93,0.2-1.92-0.24-2.87-0.39c-0.35-0.04-0.2,0.84-0.64,0.45l0.12-0.3c-0.7,0.36-1.44-0.01-2.13,0.3
				c0.04-0.07,0.04-0.16,0.11-0.16c-0.15-0.22-0.54-0.01-0.54,0.17c-0.11-0.02-0.02-0.16-0.09-0.25c-0.15-0.13-0.37,0.28-0.44,0.06
				c-0.01-0.04,0.04-0.07,0.07-0.09c-0.1,0.11-0.44-0.03-0.35,0.23c-0.26-0.12-0.49,0.11-0.7-0.04c-0.13,0.28-0.44-0.14-0.49,0.26
				c0.02-0.41-0.45-0.33-0.62-0.14c0.05-0.13-0.14-0.13-0.08-0.3c-0.19,0.01-0.36,0.08-0.33,0.3c-0.34-0.5-0.69,0.4-0.88-0.24
				c-0.55,0.22-1.07,0.37-1.57,0.47c0.02-0.41,0.55-0.04,0.53-0.47c-0.47,0.17-0.75,0.52-1.22,0.43c-0.12-0.06,0.07-0.18,0.11-0.25
				c-0.47,0.17-0.91-0.04-1.33,0.19c0-0.04,0.05-0.08,0.09-0.11c-0.08,0.01-0.19-0.06-0.18,0.13l0.08-0.05
				c0.13,0.27-0.33,0.57-0.34,0.71c0.14-0.54-0.42-0.14-0.19-0.82c-0.05,0.04-0.12,0.12-0.11,0.25c-0.08-0.04-0.11-0.11-0.02-0.25
				c-0.3,0.1-0.19,0.3-0.46,0.3c0-0.09,0.06-0.13,0.08-0.23c-0.14,0.18-0.27,0.35-0.5,0.28c0.01-0.05-0.01-0.13,0.06-0.12
				c-0.39,0.03-0.67,0.47-1.09,0.3c0.13-0.4-0.15-0.13-0.17-0.47l-0.23,0.1l0.09,0.17c-0.2-0.01-0.38,0.24-0.55,0.13l0.15-0.14
				l-0.38,0.06l0.21,0.13c-0.2,0.18,0.02,0.43-0.25,0.34c0.05-0.04-0.2,0-0.31-0.21c0,0,0,0,0,0c-0.1,0.11-0.2,0.22-0.35,0.14
				c-0.04-0.11,0.03-0.38,0.01-0.45c-0.1,0.29-0.47,0.08-0.6,0.38c0.04-0.07,0.04-0.25,0.03-0.29l-0.08,0.23
				c-0.09-0.07-0.11-0.11-0.09-0.25c-0.28-0.04,0.09,0.43-0.24,0.25c0.03-0.02,0.01-0.05,0.07-0.09c-0.34-0.1-0.65,0.15-0.96,0.03
				c-0.09-0.34,0.27-0.08,0.17-0.37c-0.44,0.06-0.92,0.41-1.35,0.33l0.08,0.04c-0.06,0.49-0.32-0.24-0.54-0.01
				c0.05-0.04,0.07-0.27,0.06-0.22c-0.29-0.08-0.6,0.12-1.05,0.27l0.06-0.12c-0.17-0.11-0.46-0.06-0.64-0.12
				c-0.06,0.12-0.16,0.1-0.1,0.29c-0.58-0.71-1.1,0.38-1.61-0.21c0.06,0,0.15-0.11,0.1-0.11l-0.44,0.12
				c0.03,0.21,0.06,0.13,0.15,0.29c-0.06,0.13-0.18,0.22-0.29,0.22c0.2-0.14,0-0.34-0.09-0.46c0.01,0.06-0.01,0.14-0.01,0.2
				c-0.23-0.38-0.04,0.43-0.35,0.17l0.02-0.11c-0.12,0.06-0.22,0.2-0.35,0.17c-0.05-0.24,0.12-0.11,0.13-0.32
				c-0.18,0.01-0.35,0.46-0.51,0.22c0.07-0.07,0.18-0.07,0.26-0.14c-0.17-0.29-0.19-0.21-0.32-0.26l0.01,0.01l-0.3-0.13l0.08,0.08
				c-0.22,0.64-0.45,0.12-0.75,0.53c0.29-0.4,0.05-0.23,0.07-0.51c-0.08-0.08-0.19-0.16-0.16-0.24c-0.14,0.22-0.23-0.18-0.43,0.15
				c-0.01-0.09-0.15-0.01-0.12-0.23c-0.18,0.07,0.04,0.16,0.03,0.27c-0.28,0.31-0.66-0.37-1.07,0.05c-0.35,0.17-0.41,0.47-0.74,0.62
				c-0.11-0.14,0.09-0.33,0.09-0.33c-0.18-0.13-0.31-0.11-0.48,0c0.03-0.08,0-0.14-0.05-0.24c-0.13,0.02-0.09,0.33-0.27,0.19
				c0.03-0.1,0.07-0.26,0.13-0.36c-0.16,0.08-0.31,0.25-0.48,0.33c-0.04-0.16,0.1-0.24,0.16-0.34c-0.18,0.07-0.47,0.14-0.53,0.39
				l0.12,0.09c-0.07,0.01-0.03-0.21,0.01-0.26c0.16-0.19,0.23,0.09,0.24,0.18l-0.12,0.06c0.12,0.52,0.47-0.08,0.7-0.05l-0.1,0.38
				l0.24-0.32c0.05,0.1,0.09,0.31-0.03,0.37c0.17,0.19,0.15-0.14,0.29,0.07c0.02,0.03,0.01,0.05-0.01,0.07l0.16-0.11
				c-0.03,0.08,0.03,0.27-0.07,0.21c0.29,0.22,0.47-0.29,0.58,0l-0.02,0.02c0.41-0.13,0.04-0.28,0.34-0.61l0.21,0.69l0.04-0.28
				c0.04,0.01,0.13,0.03,0.11,0.14c0.16-0.19-0.03-0.12,0.06-0.3c0.2,0.25,0.56-0.12,0.6,0.33c0.07-0.21-0.19-0.16,0.02-0.31
				c0.06,0.48,0.25-0.08,0.43,0.14c-0.06,0.25-0.23,0.12-0.05,0.34c0.11-0.42,0.36,0.09,0.52,0.01c0.01-0.33,0.34-0.14,0.6-0.25
				c-0.02,0.11,0.49,0.18,0.74,0.3l-0.01,0.06c0.05-0.34,0.3-0.27,0.48-0.34c-0.01,0.2-0.04,0.28-0.14,0.37l0.17,0
				c0.04-0.11,0.09-0.16,0.21-0.2l-0.04,0.25c0.23-0.01,0.46-0.3,0.75-0.13c0.02-0.23-0.23-0.65,0.08-0.81
				c0.01,0.13,0.02,0.34-0.06,0.4c0.03-0.02,0.1-0.11,0.15-0.05l-0.12,0.21c0.13,0.09,0.07-0.18,0.18-0.16
				c0,0.18,0.08,0.13,0.06,0.27c-0.03,0.02-0.09-0.07-0.13,0c0.12,0.03,0.27,0.14,0.32,0.28c-0.01-0.1,0-0.24,0.09-0.27
				c0.23-0.01,0.08,0.22,0.21,0.31c0.06-0.13,0.2,0,0.21-0.27c0.07,0,0.08,0.13,0.11,0.2c0.12-0.12,0.55-0.03,0.42-0.32l-0.03-0.02
				c0.01-0.01,0.01-0.01,0.02-0.01c0,0,0,0,0,0h0c0.39-0.27,0.81,0.15,1.19,0.04l0,0.09c0.23-0.1,0.51-0.06,0.68-0.26
				c0.07,0,0.16,0.17,0.13,0.27c0.18-0.07,0.2-0.17,0.45-0.02c-0.18,0.16,0.06,0.14-0.18,0.12c0.23,0.08,0.28,0.22,0.52-0.02
				c-0.08,0.23,0.17,0.29,0.28,0.22l-0.16-0.17c0.12-0.03,0.23-0.01,0.34,0.01l-0.06,0.3c0.47,0.37,0.84-0.63,1.2-0.01
				c0.12-0.21-0.25-0.15-0.14-0.4c0.21,0.04,0.44,0.48,0.51,0.48c0.29,0.17,0.27-0.45,0.58-0.33c-0.04-0.11-0.08-0.4,0.15-0.5
				c0.21,0.04,0.26,0.46,0.13,0.54c-0.05,0.01-0.08-0.03-0.07-0.06c-0.07,0.04-0.16,0.09-0.08,0.2l0.03-0.11
				c0.11,0.11,0.4,0.1,0.33,0.28c0.16-0.1,0.07-0.18-0.05-0.23c0.28,0.16,0.43,0,0.71,0.11c-0.05-0.06-0.09-0.19-0.04-0.19
				c0.42,0.13,0.18-0.21,0.47-0.25c0.16,0.17-0.06,0.4,0.23,0.26c0.17,0.11,0.04,0.29-0.03,0.38c0.26-0.21,0.48,0.14,0.63,0.18
				l-0.14,0.09c0.08-0.05,0.15-0.05,0.22-0.05l-0.08-0.22c0.08,0.04,0.15,0.04,0.15,0.13c0.08-0.14-0.06-0.36,0.1-0.56
				c0.11,0.11,0.32-0.12,0.36,0.17c-0.34-0.1,0.04,0.29-0.25,0.34c0.05-0.03,0.12-0.03,0.2,0.01c0.01,0.03-0.01,0.06-0.03,0.08
				c0.32,0.26,0.15-0.33,0.48-0.32c-0.04,0.16,0.08,0.31,0.13,0.27c-0.13,0-0.06-0.27,0.06-0.4c0.21,0.13,0.23-0.09,0.34-0.08
				l-0.13-0.06c0.04-0.16,0.15-0.14,0.3-0.19c0.01,0.13-0.14,0.09-0.08,0.14c0.17-0.29,0.37,0.3,0.6,0.1
				c0.11,0.11,0.01,0.31,0.1,0.38c0.26-0.21,0.28,0.22,0.55,0.05c-0.08-0.22-0.09-0.17,0.1-0.38l-0.45,0.15l0.29-0.32
				c-0.13,0-0.28,0.14-0.36,0.1c0.14-0.18,0.12-0.12,0.06-0.31c0.18,0.33,0.36-0.19,0.58,0.03l-0.01,0.54
				c0.32,0.24,0.57-0.28,0.98-0.14l-0.13-0.09c0.06-0.21,0.26-0.03,0.39-0.12c-0.01,0.18,0.07,0.25,0.13,0.36
				c-0.01-0.13,0.3,0.01,0.34-0.35l0.19,0.24c0.34,0.1,0.38-0.52,0.71-0.45c-0.1,0.2,0.05,0.32-0.17,0.47c0.11,0,0.2,0.03,0.21-0.09
				c0.06,0.11,0.3-0.24,0.4-0.07c0.05-0.08,0.06-0.27,0.18-0.25c0.01,0.04,0,0.09,0,0.09c0-0.09,0.19-0.12,0.08-0.32
				c0.33,0.56,0.93-0.04,1.22,0.44c0.23-0.06,0.52-0.12,0.73-0.13c-0.01,0.05,0,0.09-0.04,0.07c0.29,0.17,0.18-0.52,0.52-0.33
				c0.17,0.29-0.18,0.16-0.07,0.27c0.05,0.6,0.4-0.08,0.63,0.27l-0.05,0.04c0.17,0.2,0.42-0.23,0.7-0.18c0,0-0.01,0.05,0,0.09
				c0.19-0.3,0.56-0.4,0.83-0.49c-0.08,0.23-0.12,0.12-0.07,0.36c0.12-0.03-0.04-0.38,0.21-0.45c0.08,0.13,0.25,0.24,0.28,0.49
				l-0.23,0.01c0.12,0.33,0.3-0.01,0.42,0.05l-0.02,0.14c0.35-0.05,0.35-0.41,0.73-0.38l-0.04-0.11c0.21-0.36,0.17,0.2,0.38-0.06
				l0.06,0.36c0.14-0.09,0.48-0.35,0.72-0.42c-0.14,0.27-0.42,0.41-0.6,0.56c0.13,0,0.46-0.03,0.53-0.21
				c-0.05,0.03-0.12,0.12-0.18,0.07c0.17-0.28,0.38-0.42,0.65-0.42c-0.05,0.7,0.7,0.18,0.89,0.72c0.47-0.26,0.94,0.11,1.49,0.07
				c-0.2-0.55,0.16-0.02,0.13-0.58c0.13-0.04,0.18-0.03,0.19,0.01l0.39,0.33c0.09,0.16-0.12,0.12-0.11,0.25
				c0.28,0.04,0.12,0.24,0.3,0.39c-0.04-0.2,0.1-0.29,0.26-0.21l-0.23-0.26c0.39-0.3,0.34,0.47,0.74,0.17l-0.13,0.18
				c0.2-0.1,0.75,0,0.95-0.45c0.04,0.06,0.08,0.22-0.01,0.26c0.49,0.07,1.08-0.48,1.46-0.2l-0.04,0.14
				c0.09-0.04,0.16-0.26,0.27-0.12c-0.01,0.06-0.04,0.14,0.01,0.14c0.05-0.05,0.24-0.24,0.36-0.16l-0.1,0.15
				c0.47,0.18,0.73-0.38,1.13-0.47c0,0.4,0.37,0.53,0.56,0.6l-0.01,0.06c0.55,0.05,0.94-0.33,1.45-0.49
				c0.32,0.44,1.08,0.18,1.59,0.43c-0.08-0.07,0.01-0.31,0.1-0.35c0.12,0.08,0.33-0.28,0.31,0.09l-0.04-0.01
				c0.09,0.36,0.34,0.27,0.53,0.28l0.03-0.48c0.5,0.7,1.32-0.26,1.59,0.37c0.12-0.12,0.27-0.12,0.39-0.24l-0.01,0.26
				c0.34,0.07,0.5,0.1,0.92,0.04l-0.08,0.19c0.23,0.02,0.3-0.75,0.51-0.76l0.07,0.39c0.41-0.01,0.82,0.33,1.23-0.02
				c-0.01,0.06-0.02,0.17-0.08,0.18c0.19,0.01,0.74,0.26,0.67-0.27c0,0.35,0.42,0.03,0.64-0.12l-0.03,0.26
				c0.19-0.33,0.19-0.42,0.45-0.51c0.06,0.03,0.05,0.2-0.03,0.14c0.21,0.13,0.16-0.24,0.41-0.11l-0.09,0.16
				c0.21,0.02,0.19-0.07,0.31-0.26c0.13-0.1,0.4,0.06,0.43,0.3c0.03-0.14,0.14-0.33,0.27-0.26c0.02,0.09-0.03,0.14-0.05,0.17
				c0.35,0.17,0.53-0.3,0.77-0.05c0.01,0.08,0.02,0.13,0.04,0.15c-0.28-0.01-0.51-0.02-0.49-0.04c0,0.24,0.23,0.28,0.05,0.6
				c0.18-0.18,0.49-0.56,0.72-0.45c0.01,0.02,0.02,0.05,0.03,0.08l-0.02,0.03c0.05,0.02,0.1,0,0.14-0.04
				c0.07,0.04,0.12,0.07,0.18,0.07c0.03,0.19,0.26,0.1,0.37,0.11c-0.01-0.26,0.14-0.22,0-0.43c0.02,0.02-0.02,0.03-0.1,0.04
				c-0.02,0.01-0.04,0.01-0.05,0.03c0-0.01,0-0.02,0.01-0.02c-0.07,0.01-0.17,0.01-0.28,0.02c0.09-0.13,0.18-0.24,0.31-0.1
				c0.06-0.17,0.12-0.34,0.16-0.42c0.15,0.36,0.45,0.55,0.5,0.77c0.35-0.14,0.81-0.1,1.03-0.58c0.1-0.06,0.11,0.14,0.15,0.21
				c-0.06,0.05-0.12,0.04-0.15,0.11c0.2-0.12,0.58-0.05,0.63-0.39c0.25,0.15-0.14,0.31,0.2,0.26l-0.05,0.1
				c0.67,0.54,1.09-0.86,1.83-0.17c-0.05-0.04-0.08-0.06-0.09-0.12c0.85,0.31,1.74-0.29,2.58,0.2c0.24,0.1,0.26-0.12,0.41-0.28
				l0.05,0.28l0.25-0.32c0.35-0.23,0.61,0.68,1.05,0.24l-0.06-0.19c0.16,0.04,0.51-0.11,0.48,0.1c0.02-0.03,0.05-0.19,0.11-0.1
				l0,0.14l0.39-0.25c0.3,0.1-0.05,0.57,0.4,0.6c0.16-0.06,0.47-0.42,0.41-0.52c-0.07-0.01-0.17-0.09-0.18-0.24l0.15-0.08
				c0.03-0.43,0.14-0.86-0.23-1.16L88.79,87L88.7,86.8l0.22-0.01c-0.12-0.19-0.2-0.02-0.29,0.1c-0.02-0.11-0.06-0.19-0.11-0.23
				l-0.25,0.41c-0.03-0.17,0.11-0.33-0.06-0.42c-0.12,0.19,0.11,0.37-0.08,0.5c-0.12-0.19-0.09-0.35-0.23-0.19
				c-0.02-0.11,0.01-0.18,0.07-0.23c-0.13,0.13-0.34,0.06-0.41,0.28c-0.13-0.24-0.44,0.06-0.42-0.34c-0.04,0.1-0.23,0.32-0.35,0.33
				c0.22-0.48-0.44-0.03-0.39-0.55c-0.16,0.43-0.58,0.19-0.86,0.43c0.02-0.03,0.05-0.1,0.07-0.08c-0.16-0.04-0.21-0.17-0.31-0.25
				c-0.02,0.36-0.27,0.44-0.4,0.66c-0.2-0.35,0.12-0.42,0.06-0.75c0.01,0.29-0.34,0.29-0.27,0.53c-0.15-0.21-0.13-0.1-0.21-0.4
				c-0.03,0.45-0.14,0.08-0.26,0.35c-0.22-0.22-0.06-0.42-0.29-0.28C83.81,86.52,84.02,86.36,84.02,86.36z M78.36,87.14
				C78.36,87.14,78.36,87.13,78.36,87.14c0.05-0.01,0.09-0.02,0.12-0.02C78.45,87.12,78.42,87.13,78.36,87.14z M77.89,87.14
				c0.06,0.01,0.13,0.01,0.21,0.01c0.02,0.09,0,0.18-0.05,0.18C78.07,87.27,77.96,87.22,77.89,87.14z M78.89,88.93
				c-0.08,0.04-0.1-0.01-0.11-0.07c0.04,0,0.08-0.01,0.13-0.03c0-0.01,0.01-0.02,0.01-0.03C78.91,88.85,78.91,88.89,78.89,88.93z"/>
                <path class="st1" d="M79.03,88.59c0.01-0.01,0.02-0.02,0.03-0.02c-0.02-0.02-0.03-0.04-0.04-0.06c-0.01,0.03-0.02,0.05-0.03,0.08
				C79,88.59,79.01,88.59,79.03,88.59z"/>
                <path class="st1"
                      d="M35.91,88.21l0.01,0.01c-0.01-0.01-0.02-0.02-0.02-0.04C35.91,88.19,35.91,88.2,35.91,88.21z"/>
                <polygon class="st1" points="71.32,86.65 71.32,86.72 71.36,86.66 			"/>
                <path class="st1" d="M33.29,87.32c0-0.02-0.01-0.05-0.03-0.07C33.26,87.27,33.27,87.3,33.29,87.32z"/>
                <path class="st1" d="M32.16,87.27L32,87.17C32.07,87.23,32.12,87.25,32.16,87.27z"/>
                <path class="st1" d="M31.29,87.14c-0.01,0.05-0.01,0.08-0.02,0.11c0,0,0,0,0,0L31.29,87.14z"/>
                <path class="st1" d="M45.12,86.84c0.01,0,0.02,0,0.03-0.01C45.24,86.77,45.18,86.79,45.12,86.84z"/>
                <path class="st1" d="M41.01,87.44c0.04-0.05,0.09-0.09,0.13-0.12C41.07,87.3,41.01,87.29,41.01,87.44z"/>
                <path class="st1"
                      d="M49.72,86.53C49.72,86.53,49.72,86.53,49.72,86.53c0.01,0,0.02,0,0.03,0L49.72,86.53z"/>
                <path class="st1" d="M41.33,87.32c-0.07-0.05-0.13-0.04-0.19,0C41.2,87.33,41.27,87.36,41.33,87.32z"/>
                <path class="st1" d="M27.52,87.02l-0.04-0.01c0,0.02,0,0.03,0,0.04L27.52,87.02z"/>
                <path class="st1" d="M27.47,87.05l-0.05,0.03C27.45,87.08,27.47,87.08,27.47,87.05z"/>
                <path class="st1" d="M27.33,87.15l0.1-0.06C27.39,87.08,27.35,87.07,27.33,87.15z"/>
                <path class="st1" d="M28.67,87.14l0.01-0.09C28.68,87.07,28.67,87.1,28.67,87.14z"/>
                <path class="st1"
                      d="M29.02,87.11c-0.08-0.02-0.21-0.2-0.33-0.14l-0.01,0.07C28.74,86.91,28.94,87.27,29.02,87.11z"/>
                <path class="st1"
                      d="M30.48,88.27l-0.29-0.07c0.05,0.1,0.12,0.23-0.01,0.26C30.54,88.75,30.1,88.23,30.48,88.27z"/>
                <path class="st1" d="M31.39,88.41c-0.16,0.05,0,0.14-0.01,0.2C31.48,88.52,31.51,88.5,31.39,88.41z"/>
                <path class="st1" d="M37.96,88.41l-0.02,0.23C38.07,88.61,37.95,88.56,37.96,88.41z"/>
                <polygon class="st1" points="39.22,87.2 39.1,87.06 39.04,87.27 			"/>
                <polygon class="st1" points="39.96,88.87 39.91,88.9 40.11,88.82 			"/>
                <path class="st1" d="M51,88.79l-0.04-0.29C50.88,88.55,50.86,88.88,51,88.79z"/>
                <path class="st1" d="M55.76,88.49c0.05,0.14,0.19,0.24,0.27,0.1C55.93,88.57,55.82,88.46,55.76,88.49z"/>
                <polygon class="st1" points="70.05,88.96 69.96,89.06 70.14,88.98 			"/>
		</g>
	</g>
        <g>
		<g>
			<g>
				<path d="M14.47,77.35l-0.85-3.45c1.44-0.75,2.65-1.68,3.61-2.77L43.33,7.3c-0.08-0.11-0.21-0.25-0.44-0.4l-5.06-3.36h17.36
					l0.72,3.51c-0.88,0.38-1.61,0.84-2.16,1.36l-24.2,63.96c0.08,0.71,0.39,1.29,0.94,1.79l3.49,3.18H14.47z"/>
                <path class="st2" d="M14.47,75.51c1.75-0.92,3.2-2.06,4.34-3.42L45.27,7.4c-0.1-0.82-0.55-1.49-1.36-2.03h11.28
					c-1.25,0.54-2.26,1.21-3.02,2.03L27.69,72.09c0.03,1.36,0.55,2.5,1.56,3.42H14.47z"/>
                <path d="M41.55,49.19l-0.81-3.48c1.13-0.55,2.07-1.23,2.78-2.01L56.88,7.38c-0.09-0.13-0.25-0.29-0.52-0.46L51.1,3.54h18.77
					c3.46,0,6.11,1.3,7.87,3.85c1.76,2.55,2.13,5.65,1.11,9.22l-5.15,17.92c-1.12,3.91-3.38,7.34-6.71,10.18
					c-3.48,2.97-7.14,4.48-10.87,4.48H41.55z M59.08,36.49c0.63,0,1.27-0.28,1.97-0.86c0.75-0.62,1.24-1.33,1.5-2.16l5.63-17.92
					c0.22-0.7,0.05-0.96-0.01-1.05c-0.07-0.1-0.15-0.24-0.61-0.24h-2.24l-7.58,22.22H59.08z"/>
                <path class="st2" d="M71.95,34.02c-1.02,3.55-3.06,6.66-6.14,9.29c-3.14,2.68-6.38,4.04-9.68,4.04H41.55
					c1.48-0.73,2.67-1.63,3.58-2.71L58.82,7.4c-0.14-0.82-0.63-1.49-1.47-2.03h12.52c2.84,0,4.95,1.01,6.37,3.06
					c1.43,2.08,1.73,4.63,0.85,7.68L71.95,34.02z M55.19,38.32h3.9c1.06,0,2.11-0.43,3.14-1.28c1.02-0.85,1.71-1.85,2.08-3.02
					l5.63-17.92c0.32-1.02,0.24-1.88-0.22-2.6c-0.46-0.71-1.18-1.07-2.15-1.07h-3.55L55.19,38.32z"/>
                <path d="M95.17,50.17c-0.11-0.42-0.22-0.74-0.32-0.98H70.81l-0.86-3.45c1.05-0.55,1.88-1.2,2.49-1.93l9.78-36.28
					c-0.12-0.17-0.32-0.37-0.68-0.59l-5.64-3.4h17.87l0.77,3.5c-0.75,0.35-1.36,0.76-1.8,1.22l-6.85,28.23h6.12
					c1.74-1.65,3.11-3.72,4.07-6.16c1.14-2.84,1.5-5.7,1.07-8.51l3.37-1.23c1.21,1.96,2.02,4.22,2.41,6.71l0.05,0.31l-4.24,22.44
					L95.17,50.17z"/>
                <path class="st2" d="M70.81,47.36c1.42-0.75,2.52-1.65,3.31-2.71L84.16,7.4c-0.22-0.82-0.78-1.49-1.67-2.03h11.28
					c-1.17,0.54-2.07,1.21-2.71,2.03l-7.51,30.92h9.15c2.22-1.93,3.9-4.38,5.06-7.32c1.27-3.18,1.65-6.33,1.18-9.46
					c1.08,1.76,1.8,3.76,2.16,6.02L96.94,49.7c-0.29-1.08-0.64-1.86-1.05-2.34H70.81z"/>
                <path d="M101.04,73.47c-1.71-3.22-2.83-6.8-3.33-10.66l-0.04-0.28l9.49-54.85c-0.19-0.26-0.47-0.5-0.86-0.72l-6.01-3.42h30.89
					l-1.09,11.41l-3.52,0.51c-0.21-0.52-0.46-0.92-0.74-1.19h-9.01l-0.7,4.76H127l-1.23,11.59h-11.34l-0.86,5.86h9.63
					c0.52-0.39,1.02-1.01,1.48-1.83l3.42,1.07l-1.29,13.46h-15.98c-2.18,2.36-3.89,5.38-5.09,8.98c-1.53,4.54-1.96,9.31-1.26,14.18
					L101.04,73.47z"/>
                <path class="st2" d="M125.15,47.36h-15.1c-2.64,2.64-4.65,6.04-6.05,10.24c-1.62,4.8-2.08,9.8-1.34,15.01
					c-1.62-3.05-2.66-6.4-3.13-10.04l9.54-55.17c-0.3-0.82-0.92-1.49-1.87-2.03h21.97l-0.9,9.4c-0.45-1.11-1.06-1.89-1.85-2.33
					h-11.18l-1.23,8.43h10.95l-0.84,7.93h-11.27l-1.39,9.53h12.28c0.96-0.53,1.81-1.46,2.54-2.77L125.15,47.36z"/>
                <path d="M148.24,73.88c-2.16-3.19-3.79-6.76-4.84-10.59l-0.07-0.26l1.5-55.12c-0.26-0.33-0.65-0.64-1.17-0.91l0.85-3.45h10.95
					l6.18,14.25l-0.36-9.81C161,7.62,160.57,7.29,160,7l0.83-3.46h11.29l0.87,3.45c-0.48,0.26-0.85,0.55-1.09,0.86l2.29,36.25
					c0.42,0.64,1.03,1.19,1.86,1.67l5.94,3.42h-19.44l-7.16-17.64l-0.01,16.56l-0.44,0.51c-2.06,2.4-3.49,5.57-4.24,9.44
					c-0.86,4.55-0.59,9.36,0.81,14.29L148.24,73.88z"/>
                <path class="st2" d="M163.79,47.36l-10.22-25.18l-0.01,25.25c-2.27,2.64-3.82,6.05-4.65,10.28c-0.92,4.83-0.65,9.87,0.85,15.14
					c-2.07-3.05-3.59-6.41-4.6-10.05l1.51-55.39c-0.42-0.82-1.14-1.49-2.16-2.03h9.75l9.57,22.05L163.1,7.4
					c-0.45-0.82-1.21-1.49-2.27-2.03h11.29c-1,0.54-1.7,1.21-2.09,2.03l2.36,37.25c0.57,1.08,1.49,1.98,2.75,2.71H163.79z"/>
                <path d="M170.73,49.19l5.37-3.38c0.68-0.43,1.16-0.91,1.45-1.47l-3.16-36.28c-0.33-0.39-0.81-0.75-1.43-1.05l0.81-3.47h11.29
					l0.88,3.44c-0.44,0.24-0.77,0.51-0.98,0.8l4.13,36.26c0.46,0.66,1.14,1.25,2.01,1.73l6.14,3.43H170.73z"/>
                <path class="st2" d="M177.07,47.36c1.15-0.73,1.93-1.63,2.34-2.71L176.17,7.4c-0.51-0.82-1.31-1.49-2.39-2.03h11.28
					c-0.98,0.54-1.64,1.21-1.99,2.03l4.24,37.25c0.63,1.08,1.59,1.98,2.89,2.71H177.07z"/>
                <path d="M217.88,72.43c0.47-4.87-0.17-9.64-1.89-14.19c-1.38-3.63-3.25-6.68-5.56-9.06h-3.35c-3.78,0-7.27-1.54-10.36-4.56
					c-2.96-2.9-4.74-6.38-5.29-10.35l-3.63-26.15c-0.37-0.42-0.89-0.79-1.55-1.11l0.8-3.48h12.52c3.27,0,6.32,1.17,9.09,3.49
					c2.8,2.35,4.61,5.27,5.36,8.69l0.73,3.32h7.26l-5.41,3.38c-0.43,0.27-0.73,0.56-0.91,0.89l8.59,39.14l-0.02,0.28
					c-0.32,3.87-1.29,7.47-2.88,10.69L217.88,72.43z M202.65,33.72c0.13,0.77,0.48,1.42,1.08,1.99c0.74,0.7,1.33,0.78,1.72,0.78
					h1.65l-1.13-5.86h-3.76l-0.98-5.48L202.65,33.72z M203.74,19.03l-0.5-2.58c-0.12-0.61-0.42-1.11-0.94-1.56
					c-0.49-0.42-0.96-0.62-1.49-0.62h-1.39l0.79,4.76H203.74z"/>
                <path class="st2" d="M219.7,72.61c0.5-5.22-0.19-10.22-2-15.01c-1.59-4.2-3.77-7.6-6.52-10.24h-4.1c-3.3,0-6.34-1.36-9.08-4.04
					c-2.69-2.63-4.27-5.74-4.76-9.29l-3.7-26.62c-0.55-0.82-1.39-1.49-2.5-2.03h12.52c2.84,0,5.47,1.01,7.91,3.06
					c2.49,2.08,4.07,4.63,4.74,7.68l0.41,1.87h-7.22l-0.36-1.87c-0.2-1.02-0.71-1.88-1.54-2.6c-0.83-0.71-1.72-1.07-2.69-1.07h-3.55
					l3.57,21.59c0.19,1.17,0.74,2.18,1.63,3.02c0.9,0.85,1.89,1.28,2.97,1.28h3.87l-1.83-9.53h-3.74l-1.42-7.93h13.28
					c-0.97,0.61-1.59,1.37-1.85,2.29l8.65,39.42C222.09,66.2,221.2,69.56,219.7,72.61z"/>
                <path d="M251.4,72.87c-0.05-4.94-1.21-9.77-3.44-14.36c-1.92-3.95-4.35-7.21-7.23-9.69l-0.41-0.35l-5.28-17.84h-4.83l3.5,13.2
					c0.61,0.74,1.43,1.38,2.46,1.91l-0.84,3.46h-18.97l4.79-3.34c0.54-0.38,0.89-0.78,1.09-1.26l-8.67-36.34
					c-0.44-0.46-1.04-0.87-1.79-1.22l0.77-3.49h32.4l-5.44,3.39c-0.3,0.19-0.47,0.36-0.57,0.5l17.78,55.07l0,0.27
					c0.06,3.88-0.54,7.49-1.78,10.73L251.4,72.87z M231.6,19l-3.16-10.69c-0.48-0.49-1.13-0.92-1.93-1.28l0.28-1.31l-2.01,1.21
					c-0.37,0.22-0.57,0.43-0.69,0.6L227.13,19H231.6z"/>
                <path class="st2" d="M215.25,7.4c-0.63-0.82-1.53-1.49-2.7-2.03h11.28c-0.9,0.54-1.46,1.21-1.68,2.03l3.56,13.43h8.33
					L230.08,7.4c-0.68-0.82-1.62-1.49-2.82-2.03h11.28c-0.87,0.54-1.38,1.21-1.54,2.03l12.9,39.96l4.98,15.44
					c0.05,3.64-0.49,7-1.66,10.05c-0.06-5.28-1.29-10.32-3.63-15.14c-2.05-4.23-4.61-7.64-7.68-10.28l-2.69-9.1l-2.82-9.53h-8.58
					l4.21,15.86c0.79,1.08,1.89,1.98,3.3,2.71H222.2c1.04-0.73,1.69-1.63,1.93-2.71L215.25,7.4z"/>
                <path d="M265.81,77.35l3.57-3.2c0.58-0.52,0.9-1.1,1-1.82l-20.39-58.06h-4.07c-0.13,0.25-0.2,0.57-0.23,0.79l-3.54,0.3
					l-4.02-11.82h26.59l4.51,10.51l-3.03,1.97c-0.74-0.8-1.46-1.38-2.15-1.75h-3.06l21.73,56.88c0.93,1.07,2.11,2,3.52,2.74
					l-0.86,3.45H265.81z"/>
                <path class="st2" d="M263.51,5.37l4.03,9.4c-1.03-1.11-2.06-1.89-3.07-2.33h-6.13l22.79,59.66c1.11,1.36,2.53,2.5,4.26,3.42
					h-14.78c1.03-0.92,1.57-2.06,1.63-3.42l-20.95-59.66h-6.13c-0.68,0.44-1.1,1.22-1.28,2.33l-3.19-9.4H263.51z"/>
			</g>
            <path d="M272.26,30.86l6-6.85h13.53l6,6.85l-2.19,2.85c-1.24-0.61-2.85-1.06-4.77-1.33h-11.61c-1.92,0.27-3.53,0.72-4.77,1.33
				L272.26,30.86z"/>
            <path class="st2" d="M296.41,32.07c-1.45-0.71-3.27-1.22-5.45-1.52h-11.87c-2.18,0.3-4,0.81-5.45,1.52l5.45-6.23h11.87
				L296.41,32.07z"/>
            <path d="M2.98,30.86l6-6.85h13.53l6,6.85l-2.19,2.85c-1.24-0.61-2.85-1.06-4.77-1.33H9.94c-1.92,0.27-3.53,0.72-4.77,1.33
				L2.98,30.86z"/>
            <path class="st2" d="M27.13,32.07c-1.45-0.71-3.27-1.22-5.45-1.52H9.81c-2.18,0.3-4,0.81-5.45,1.52l5.45-6.23h11.87L27.13,32.07z
				"/>
            <path d="M43.08,55.19H253.7v10.39H48.12c-2.63,0.4-4.83,1.06-6.55,1.96l-4.43,2.33L43.08,55.19z"/>
            <path class="st2" d="M251.87,63.74H47.98c-2.91,0.43-5.33,1.15-7.27,2.17l3.61-8.9h207.56V63.74z"/>
		</g>
	</g>
        <g>
		<g>
			<g>
				<path class="st2" d="M14.47,75.51c1.75-0.92,3.2-2.06,4.34-3.42L45.27,7.4c-0.1-0.82-0.55-1.49-1.36-2.03h11.28
					c-1.25,0.54-2.26,1.21-3.02,2.03L27.69,72.09c0.03,1.36,0.55,2.5,1.56,3.42H14.47z"/>
                <path class="st2" d="M71.95,34.02c-1.02,3.55-3.06,6.66-6.14,9.29c-3.14,2.68-6.38,4.04-9.68,4.04H41.55
					c1.48-0.73,2.67-1.63,3.58-2.71L58.82,7.4c-0.14-0.82-0.63-1.49-1.47-2.03h12.52c2.84,0,4.95,1.01,6.37,3.06
					c1.43,2.08,1.73,4.63,0.85,7.68L71.95,34.02z M55.19,38.32h3.9c1.06,0,2.11-0.43,3.14-1.28c1.02-0.85,1.71-1.85,2.08-3.02
					l5.63-17.92c0.32-1.02,0.24-1.88-0.22-2.6c-0.46-0.71-1.18-1.07-2.15-1.07h-3.55L55.19,38.32z"/>
                <path class="st2" d="M70.81,47.36c1.42-0.75,2.52-1.65,3.31-2.71L84.16,7.4c-0.22-0.82-0.78-1.49-1.67-2.03h11.28
					c-1.17,0.54-2.07,1.21-2.71,2.03l-7.51,30.92h9.15c2.22-1.93,3.9-4.38,5.06-7.32c1.27-3.18,1.65-6.33,1.18-9.46
					c1.08,1.76,1.8,3.76,2.16,6.02L96.94,49.7c-0.29-1.08-0.64-1.86-1.05-2.34H70.81z"/>
                <path class="st2" d="M125.15,47.36h-15.1c-2.64,2.64-4.65,6.04-6.05,10.24c-1.62,4.8-2.08,9.8-1.34,15.01
					c-1.62-3.05-2.66-6.4-3.13-10.04l9.54-55.17c-0.3-0.82-0.92-1.49-1.87-2.03h21.97l-0.9,9.4c-0.45-1.11-1.06-1.89-1.85-2.33
					h-11.18l-1.23,8.43h10.95l-0.84,7.93h-11.27l-1.39,9.53h12.28c0.96-0.53,1.81-1.46,2.54-2.77L125.15,47.36z"/>
                <path class="st2" d="M163.79,47.36l-10.22-25.18l-0.01,25.25c-2.27,2.64-3.82,6.05-4.65,10.28c-0.92,4.83-0.65,9.87,0.85,15.14
					c-2.07-3.05-3.59-6.41-4.6-10.05l1.51-55.39c-0.42-0.82-1.14-1.49-2.16-2.03h9.75l9.57,22.05L163.1,7.4
					c-0.45-0.82-1.21-1.49-2.27-2.03h11.29c-1,0.54-1.7,1.21-2.09,2.03l2.36,37.25c0.57,1.08,1.49,1.98,2.75,2.71H163.79z"/>
                <path class="st2" d="M177.07,47.36c1.15-0.73,1.93-1.63,2.34-2.71L176.17,7.4c-0.51-0.82-1.31-1.49-2.39-2.03h11.28
					c-0.98,0.54-1.64,1.21-1.99,2.03l4.24,37.25c0.63,1.08,1.59,1.98,2.89,2.71H177.07z"/>
                <path class="st2" d="M219.7,72.61c0.5-5.22-0.19-10.22-2-15.01c-1.59-4.2-3.77-7.6-6.52-10.24h-4.1c-3.3,0-6.34-1.36-9.08-4.04
					c-2.69-2.63-4.27-5.74-4.76-9.29l-3.7-26.62c-0.55-0.82-1.39-1.49-2.5-2.03h12.52c2.84,0,5.47,1.01,7.91,3.06
					c2.49,2.08,4.07,4.63,4.74,7.68l0.41,1.87h-7.22l-0.36-1.87c-0.2-1.02-0.71-1.88-1.54-2.6c-0.83-0.71-1.72-1.07-2.69-1.07h-3.55
					l3.57,21.59c0.19,1.17,0.74,2.18,1.63,3.02c0.9,0.85,1.89,1.28,2.97,1.28h3.87l-1.83-9.53h-3.74l-1.42-7.93h13.28
					c-0.97,0.61-1.59,1.37-1.85,2.29l8.65,39.42C222.09,66.2,221.2,69.56,219.7,72.61z"/>
                <path class="st2" d="M215.25,7.4c-0.63-0.82-1.53-1.49-2.7-2.03h11.28c-0.9,0.54-1.46,1.21-1.68,2.03l3.56,13.43h8.33
					L230.08,7.4c-0.68-0.82-1.62-1.49-2.82-2.03h11.28c-0.87,0.54-1.38,1.21-1.54,2.03l12.9,39.96l4.98,15.44
					c0.05,3.64-0.49,7-1.66,10.05c-0.06-5.28-1.29-10.32-3.63-15.14c-2.05-4.23-4.61-7.64-7.68-10.28l-2.69-9.1l-2.82-9.53h-8.58
					l4.21,15.86c0.79,1.08,1.89,1.98,3.3,2.71H222.2c1.04-0.73,1.69-1.63,1.93-2.71L215.25,7.4z"/>
                <path class="st2" d="M263.51,5.37l4.03,9.4c-1.03-1.11-2.06-1.89-3.07-2.33h-6.13l22.79,59.66c1.11,1.36,2.53,2.5,4.26,3.42
					h-14.78c1.03-0.92,1.57-2.06,1.63-3.42l-20.95-59.66h-6.13c-0.68,0.44-1.1,1.22-1.28,2.33l-3.19-9.4H263.51z"/>
			</g>
            <path class="st2" d="M296.41,32.07c-1.45-0.71-3.27-1.22-5.45-1.52h-11.87c-2.18,0.3-4,0.81-5.45,1.52l5.45-6.23h11.87
				L296.41,32.07z"/>
            <path class="st2" d="M27.13,32.07c-1.45-0.71-3.27-1.22-5.45-1.52H9.81c-2.18,0.3-4,0.81-5.45,1.52l5.45-6.23h11.87L27.13,32.07z
				"/>
            <path class="st2" d="M251.87,63.74H47.98c-2.91,0.43-5.33,1.15-7.27,2.17l3.61-8.9h207.56V63.74z"/>
		</g>
	</g>
</g>
</svg>
