<?xml version="1.0" encoding="utf-8"?>
<!-- Generator: Adobe Illustrator 24.0.2, SVG Export Plug-In . SVG Version: 6.00 Build 0)  -->
<svg version="1.1" id="Layer_1" xmlns="http://www.w3.org/2000/svg" x="0px"
     y="0px"
     viewBox="0 0 287 66" style="enable-background:new 0 0 287 66;" xml:space="preserve">
<style type="text/css">
	.st0{fill:#FF1D25;}
</style>
    <g>
	<path class="st0" d="M34.7,0.45c-0.69,0.37-1.2,0.69-1.53,0.98L21.38,24.43v17.48c0.53,0.94,1.41,1.74,2.63,2.39H10.39
		c1.25-0.65,2.12-1.46,2.63-2.42V24.4L1.73,1.37C1.4,1.11,0.91,0.8,0.26,0.45h12.52c-0.76,0.39-1.31,0.76-1.65,1.1l6.15,12.55
		l6.49-12.64c-0.35-0.31-0.88-0.64-1.59-1.01H34.7z"/>
        <path class="st0" d="M65.75,0.45c-1.27,0.65-2.16,1.47-2.69,2.45v28.87c0,3.45-1.22,6.4-3.67,8.85c-2.45,2.45-5.4,3.67-8.85,3.67
		h-1.04c-3.45,0-6.4-1.22-8.85-3.67c-2.45-2.45-3.67-5.4-3.67-8.85v-18.8c0-3.45,1.22-6.4,3.67-8.85c2.45-2.45,5.4-3.67,8.85-3.67
		H65.75z M54.73,8.81h-5.24c-1.14,0-2.12,0.41-2.94,1.22c-0.82,0.82-1.22,1.8-1.22,2.94v18.8c0,1.14,0.41,2.12,1.22,2.94
		c0.82,0.82,1.8,1.22,2.94,1.22h1.04c1.16,0,2.15-0.41,2.97-1.22c0.82-0.82,1.22-1.8,1.22-2.94V8.81z"/>
        <path class="st0" d="M99.61,0.45c-1.27,0.65-2.16,1.47-2.69,2.45v28.87c0,3.45-1.23,6.4-3.67,8.85s-5.4,3.67-8.85,3.67h-1.04
		c-3.45,0-6.4-1.22-8.85-3.67c-2.45-2.45-3.67-5.4-3.67-8.85V2.9c-0.53-0.98-1.43-1.8-2.69-2.45h13.72
		c-1.27,0.65-2.16,1.47-2.69,2.45v28.87c0,1.14,0.41,2.12,1.22,2.94c0.82,0.82,1.81,1.22,2.97,1.22h1.04c1.14,0,2.12-0.41,2.94-1.22
		c0.82-0.82,1.22-1.8,1.22-2.94V2.9c-0.51-0.98-1.4-1.8-2.66-2.45H99.61z"/>
        <path class="st0" d="M145.5,31.77c0,3.45-1.22,6.4-3.67,8.85c-2.45,2.45-5.4,3.67-8.85,3.67h-15.22c1.27-0.65,2.16-1.47,2.69-2.45
		V2.9c-0.53-0.98-1.43-1.8-2.69-2.45h15.22c3.45,0,6.4,1.22,8.85,3.67c2.45,2.45,3.67,5.4,3.67,8.85V31.77z M128.79,35.94h4.19
		c1.14,0,2.12-0.41,2.94-1.22c0.82-0.82,1.22-1.8,1.22-2.94v-18.8c0-1.14-0.41-2.12-1.22-2.94c-0.82-0.82-1.8-1.22-2.94-1.22h-4.19
		V35.94z"/>
        <path class="st0" d="M148.32,44.3c1.27-0.65,2.16-1.47,2.69-2.45V2.9c-0.53-0.98-1.43-1.8-2.69-2.45h13.72
		c-1.27,0.65-2.16,1.47-2.69,2.45v38.94c0.53,0.98,1.43,1.8,2.69,2.45H148.32z"/>
        <path class="st0" d="M191.27,44.3h-15.77c-2.33,2.35-3.86,5.31-4.59,8.88c-0.84,3.96-0.49,7.96,1.04,12
		c-2.04-2.35-3.6-4.98-4.68-7.9V2.9c-0.53-0.98-1.43-1.8-2.69-2.45h26.7v11.02c-0.65-1.27-1.47-2.15-2.45-2.66H175.6v9.4h12.55v8.33
		H175.6v9.4h13.23c0.98-0.51,1.8-1.4,2.45-2.66V44.3z"/>
        <path class="st0" d="M222.13,31.77c0,3.45-1.22,6.4-3.67,8.85s-5.4,3.67-8.85,3.67H194.4c1.27-0.65,2.16-1.47,2.69-2.45V2.9
		c-0.53-0.98-1.43-1.8-2.69-2.45h15.22c3.45,0,6.4,1.22,8.85,3.67c2.45,2.45,3.67,5.4,3.67,8.85V31.77z M205.42,35.94h4.19
		c1.14,0,2.12-0.41,2.94-1.22c0.82-0.82,1.22-1.8,1.22-2.94v-18.8c0-1.14-0.41-2.12-1.22-2.94c-0.82-0.82-1.8-1.22-2.94-1.22h-4.19
		V35.94z"/>
        <path class="st0" d="M241.51,0.45c-1.27,0.65-2.16,1.47-2.69,2.45v28.87h-8.33V2.9c-0.53-0.98-1.43-1.8-2.69-2.45H241.51z
		 M238.82,41.85c0.53,0.98,1.43,1.8,2.69,2.45H227.8c1.27-0.65,2.16-1.47,2.69-2.45v-5.91h8.33V41.85z"/>
        <path class="st0" d="M263.16,0.45c-1.27,0.65-2.16,1.47-2.69,2.45v28.87h-8.33V2.9c-0.53-0.98-1.43-1.8-2.69-2.45H263.16z
		 M260.47,41.85c0.53,0.98,1.43,1.8,2.69,2.45h-13.72c1.27-0.65,2.16-1.47,2.69-2.45v-5.91h8.33V41.85z"/>
        <path class="st0" d="M284.81,0.45c-1.27,0.65-2.16,1.47-2.69,2.45v28.87h-8.33V2.9c-0.53-0.98-1.43-1.8-2.69-2.45H284.81z
		 M282.11,41.85c0.53,0.98,1.43,1.8,2.69,2.45h-13.72c1.27-0.65,2.16-1.47,2.69-2.45v-5.91h8.33V41.85z"/>
</g>
</svg>
